/* XPM */
static char *_3304e7524794d5bca267bc5fd9b4f69A4evJHL6oerbH1Xr[] = {
/* columns rows colors chars-per-pixel */
"64 64 8 1 ",
"  c None",
". c #54398A",
"X c #6F4FAB",
"o c #8D6ACC",
"O c #B38EF3",
"+ c #CFA0F3",
"@ c #FFFDD5",
"# c #FECBE6",
/* pixels */
"                                                                ",
"                                                                ",
"                                                                ",
"                                                                ",
"                                                                ",
"                                                                ",
"                                                                ",
"                                                                ",
"                                                                ",
"                                                                ",
"                                     XXXXXXXXXXXXXXXXX          ",
"                                    XO###############X          ",
"                                   XO###############+.          ",
"                                  XO###############++.          ",
"                                 XO###############++o.          ",
"                                XO##############@++oo.          ",
"                               XO##############@++ooo.          ",
"                              XOOO############@++oooo.          ",
"                             XOOOOO##########@++ooooo.          ",
"                            X+OOOOOO########@++oooooo.          ",
"                           X#++OOOOO+######@+oooooooo.          ",
"                          X###++OOOOO+####@+ooooooooo.          ",
"                         X#####++OOOOO+##@+oooooooooo.          ",
"                        Xo++####++OOOOO+@Xooooooooooo.          ",
"                       XoOO++####++OOOO@XXooooooooooo.          ",
"                      Xo+OOO++####++OO+oXXooooooooooo.          ",
"                     X+++OOOO++####+++ooXXooooooooooo.          ",
"                    X+++OOOOOO++####+XooXXoooooooooX.           ",
"                   XO+++OOOOOOO++##+XXooXXooooooooX.            ",
"                  Xo++++++OOOOOO+#+oXXooXXoooooooX.             ",
"                 XoOOO+++OOOOOOO++ooXXooXXooooooX.              ",
"                XoOOOO++OOOOOOOO+XooXXooXXoooooX.               ",
"               XoOOOOOO+OOOOOOO@XXooXXooXXooooX.                ",
"              XoOOOOOOO++OOOOO@OXXooXXooXXooXX.                 ",
"             XooOOOOO++++++OO@OoXXooXXooXXoXX.                  ",
"            XooooOOOOO++++OO@OooXXooXXooXXXX.                   ",
"           XooXoXoOOOOO+++O#OOOoXXooXXooXXX.                    ",
"          .ooooXXXoOOO++++#OOOOOXXooXXooXX.                     ",
"          X.ooooXXooOO+oo#OOOOOOXXooXXooX.                      ",
"          ..XoooooXoo+oo#oOOOOOOXXooXXoo.                       ",
"          .X.XX.oooooooOoooOOOOOXXooXXo.                        ",
"          ...X.XXoooooOooooOOOOOXXooXX.                         ",
"          ..X..X.XoooOoooooOOOOOXXooX.                          ",
"          ......XXXoOooXooooOOOOXXoo.                           ",
"          .....X..XXooXoooooOOOOXXo.                            ",
"          .......X.X.XXXooooOOOOXX.                             ",
"          .....XXXX.X.ooooooOOOoX.                              ",
"          ....X.X...XXoXooXooOoo.                               ",
"          .........XXXXoXXoooXo.                                ",
"           .......X.X.XXXooXXo.                                 ",
"            .....X...XXXoXXXo.                                  ",
"             .......XXX.XoXo.                                   ",
"              .....oX.XoXXXX                                    ",
"               ...o..XoX.XX                                     ",
"                X.X.Xo..XX                                      ",
"                 X.Xo..XX                                       ",
"                  XX.XXX                                        ",
"                   XXXX                                         ",
"                                                                ",
"                                                                ",
"                                                                ",
"                                                                ",
"                                                                ",
"                                                                "
};
