/* XPM */
static char *a0aa5846200b43a6f3e07dbeafea5718VuLH5UY32TBSjz2r[] = {
/* columns rows colors chars-per-pixel */
"64 64 217 2 ",
"   c None",
".  c #311507",
"X  c #3C1604",
"o  c #311807",
"O  c #311B07",
"+  c #311E07",
"@  c #3C1A04",
"#  c #3C1F04",
"$  c #3C2004",
"%  c #3C2404",
"&  c #3C2A04",
"*  c #4A1704",
"=  c #4A1B04",
"-  c #4A2C04",
";  c #4A3A04",
":  c #46281D",
">  c #462A1D",
",  c #462D1D",
"<  c #462E1D",
"1  c #542C1D",
"2  c #542F1D",
"3  c #46301D",
"4  c #46341D",
"5  c #54341D",
"6  c #54381D",
"7  c #6E311A",
"8  c #6E351A",
"9  c #603B1A",
"0  c #60481A",
"q  c red",
"w  c #FF0200",
"e  c #FF0400",
"r  c #FF0700",
"t  c #FF0800",
"y  c #FF0900",
"u  c #FF0A00",
"i  c #FF0C00",
"p  c #FF0D00",
"a  c #FF0E00",
"s  c #FF1000",
"d  c #FF1100",
"f  c #FF1300",
"g  c #FF1A00",
"h  c #CE3F07",
"j  c #D73B02",
"k  c #FF2E00",
"l  c #FF2F00",
"z  c #E63A02",
"x  c #FF3100",
"c  c #FF3200",
"v  c #FF3400",
"b  c #FF3500",
"n  c #FF3600",
"m  c #F13C00",
"M  c #F33E02",
"N  c #FF3800",
"B  c #FF3900",
"V  c #FF3A00",
"C  c #FF3B00",
"Z  c #FF3C00",
"A  c #FF3E00",
"S  c #FF3F00",
"D  c #CE4007",
"F  c #CA4C02",
"G  c #CE5307",
"H  c #CE5607",
"J  c #CA5902",
"K  c #CE5D07",
"L  c #D75802",
"P  c #E64502",
"I  c #E74704",
"U  c #E74C04",
"Y  c #F14600",
"T  c #F34602",
"R  c #FF4000",
"E  c #FF4100",
"W  c #FF4200",
"Q  c #FF4300",
"!  c #FF4400",
"~  c OrangeRed",
"^  c #FF4600",
"/  c #FF4700",
"(  c #F34902",
")  c #F34A02",
"_  c #F14D00",
"`  c #FF4800",
"'  c #FF4900",
"]  c #FF4A00",
"[  c #FF4B00",
"{  c #FF4D00",
"}  c #FF4E00",
"|  c #FF4F00",
" . c #E35100",
".. c #E35D00",
"X. c #F35402",
"o. c #FF5100",
"O. c #FF5300",
"+. c #FF5700",
"@. c #F35D02",
"#. c #F35E02",
"$. c #FF5800",
"%. c #FF5900",
"&. c #FF5A00",
"*. c #FF5B00",
"=. c #FF5C00",
"-. c #FF5D00",
";. c #FF5E00",
":. c #FF5F00",
">. c #CA6D02",
",. c #CE7107",
"<. c #CA7B02",
"1. c #E76104",
"2. c #E76504",
"3. c #E76E04",
"4. c #F16200",
"5. c #F36602",
"6. c #FF6000",
"7. c #FF6100",
"8. c #FF6200",
"9. c #FF6300",
"0. c #FF6400",
"q. c #FF6500",
"w. c #FF6600",
"e. c #FF6700",
"r. c #F16E00",
"t. c #FF6800",
"y. c #FF6900",
"u. c #FF6A00",
"i. c #FF6B00",
"p. c #FF6C00",
"a. c #FF6D00",
"s. c #FF6E00",
"d. c #FF6F00",
"f. c #E37600",
"g. c #E37A00",
"h. c #E67C02",
"j. c #F17400",
"k. c #F37602",
"l. c #FF7000",
"z. c #FF7100",
"x. c #FF7200",
"c. c #FF7300",
"v. c #FF7400",
"b. c #FF7500",
"n. c #FF7700",
"m. c #F37F02",
"M. c #FF7800",
"N. c #FF7900",
"B. c #FF7B00",
"V. c #FF7C00",
"C. c #E38100",
"Z. c #E38200",
"A. c #E68402",
"S. c #E78A04",
"D. c #FF8100",
"F. c #FF8200",
"G. c #FF8300",
"H. c #FF8500",
"J. c #FF8600",
"K. c #FF8700",
"L. c #F18800",
"P. c #F18D00",
"I. c #FF8800",
"U. c #FF8900",
"Y. c #FF8A00",
"T. c #FF8B00",
"R. c DarkOrange",
"E. c #FF8D00",
"W. c #FF8E00",
"Q. c #FF8F00",
"!. c #F19600",
"~. c #FF9000",
"^. c #FF9100",
"/. c #FF9200",
"(. c #FF9300",
"). c #FF9400",
"_. c #FF9500",
"`. c #FF9600",
"'. c #FF9700",
"]. c #FF9800",
"[. c #FF9900",
"{. c #FF9A00",
"}. c #FF9B00",
"|. c #FF9C00",
" X c #FF9D00",
".X c #FF9E00",
"XX c #FF9F00",
"oX c #E3A200",
"OX c #FFA000",
"+X c #FFA100",
"@X c #FFA300",
"#X c #FFA400",
"$X c orange",
"%X c #FFA600",
"&X c #FFA900",
"*X c #FFAB00",
"=X c #FFAE00",
"-X c #FFAF00",
";X c #E3B100",
":X c #FFB800",
">X c #FFBE00",
",X c #FFBF00",
"<X c #FFC000",
"1X c #FFC300",
"2X c #FFC400",
"3X c #FFC500",
"4X c #FFC600",
"5X c #FFC700",
"6X c #FFC900",
"7X c #FFCA00",
"8X c #FFCC00",
"9X c #FFCD00",
"0X c #FFCF00",
"qX c #FFD000",
"wX c #FFD100",
"eX c #FFD300",
"rX c #FFD400",
/* pixels */
"                                                                                                                                ",
"                                                                                                                                ",
"                                                                          q q q q                                               ",
"                                                                    q q q q q q q q q                                           ",
"                                                                  q q q q q q q q q                                             ",
"                                                              q q q q q q q q q q q                                             ",
"                                                            q q q q q R R R q q q q                                             ",
"                                                          q q q q R R R R R q q q                                               ",
"                                                        q q q q R R R R R R q q q                                               ",
"                                                      q q q q R R R R R R q q q                                                 ",
"                                                    q q q q q R R R R R R q                                                     ",
"                                                    q q q q R R R R R R R q                                                     ",
"                                                    q q q R R R R R R R R q               q q                                   ",
"                                                    q q R R R R R R R R R q               q q q q                               ",
"                                                    q R R R R R R R R R R q               q q q q q                             ",
"                                q q q           q q q R R R R R R R R R b d             q q q q q q                             ",
"                              q q q q q         q q R R R R R R R R R R x a           q q R R R R q q                           ",
"                            q q q q q         q q q R R R R R R R R R R b a             q q q R R R q q                         ",
"                          q q q q             q q q R R R R R R R R R R C a q q           q q q R R R q q                       ",
"                        q q q q             q q q q R R R R R R R R R R R b q q q             q q R R q q                       ",
"                        q q q q             q q q q R R R R R R R R R ~ R C q q q             q q R R q q q                     ",
"                        q q q q             q q q q R R R R R R R R R R R b q q q             q q R R q q q                     ",
"                        q R q q             q q q q R R R R Z R R ~ ` | =.O.q q q q             q q R R q q q q                 ",
"                    q q q R q q             q q q q R R R R ~ ~ ~ ` =.7.e.=.q q q q q           q q R R q q q q                 ",
"                  q q q q R q q q             q q q R R R R ` ` ~ 7.e.i.i.=.Z R R q q         q q q R R R R q q                 ",
"                  q q q q Z q q q q q         q q q b R R ~ 7.7.7.e.i.p.i.i.R R R q q     q q q q q R R R R q q                 ",
"                  q R R C C C x q q q q q     q q q b R R ~ 7.7.7.i.i.l.K.i.R R R q q q q q q q R R R R R R q q                 ",
"                q q R R R O.~ C b k x u q q q q u u x R R ~ e.e.e.i.l.E.T.p.R R R R R q q R R R R R i.R R R q q                 ",
"                q q R R R O.~ C b k k u q q q q u u k R R ~ 7.7.e.p.l.E.T.i.Z R R R R q q R R R R R i.R R R q q                 ",
"                q q R R R O.~ Z b x x u q q q q u r x R R ` e.7.7.p.l.E.T.i.R R R R R q q R R R R R i.R R R q q                 ",
"                q q R R ~ +.| ~ R b b g d u u u a a x Z ~ | e.e.e.l.T./.T.i.R R R R Z a d C C R R R i.Z R R q q                 ",
"                q q R R ~ =.7.%.~ Z Z b x b b b C C Z R ~ 7.p.p.p.K.E./.K.i.` ` R R R C C Z Z R ` 7.7.` R R q q                 ",
"                q q b b ~ =.e.7.O.` | ~ ~ R m z z m R ~ ` e.l.p.l.E._._.T.p._ P ~ R R R R R R ~ 7.7.7.~ R R q q                 ",
"                q q b b ` %.e.i.i.e.e.e.%.| T 7 = j Y %.e.p.b.b.l./._._.T.r.L = 8 ) ~ R R ~ R ` e.e.` R R R q q                 ",
"                q q C b ~ | 7.l.D.D.D.p.e.7.X.h : X  .e.l.K.E.E.E._._._.E.f.# , H @.%.` R ` ` e.e.e.` R R R q q                 ",
"                q q b b R | e.p.D.D.D.p.e.7.+.I 1 . F 4.l.K.E.E.E._._._.L.>.O 5 1.e.%.` R ` ` 7.e.7.` R R R q q                 ",
"                q q C b ~ | e.l.D.D.D.p.e.7.+.) h : @ ..l.T.E.E.E._._._.Z.% 3 K 5.e.%.` R ` ~ 7.i.7.~ R R R q q                 ",
"                q q b b R ` 7.l.T.T.T.B.p.e.=.O.U 2 o J j.E._._._._..X!.<.+ 6 3.p.i.=.` ~ 7.7.e.i.7.` R R R q q                 ",
"                q q Z R R ~ e.l.T.E.E.K.l.i.7.%.@.G , $ g./._._._..X:XoX& 3 ,.L.l.p.7.| ` e.7.i.i.7.` Z R R q q                 ",
"                q q R R R Z i.i.T././.E.B.p.i.i.i.2.9 - Z._.[.[.[..X3X;X; 0 S.E.V.l.e.=.| e.e.i.i.7.~ C R R q q                 ",
"                q q q q q R i.i.i._._.E.E.l.b.b.b.k.h.A.P._._._._.3XeXeX6X,X@X@XE.B.l.i.e.i.i.e.e.7.Z d q q q q                 ",
"                    q q q R R R i.i.i.E._./.T.T.E.E./._._.[.@X$X@X9XeXeXeXeX6X6X.X_.T.i.i.i.i.e.Z R R q q q                     ",
"                    q q u b R ` i.e.i.T./._./._._./._._.[..X6X6X6XeXrXrXrXrX9X9X,X.X/._._.i.i.i.R R R q q q                     ",
"                    q q u b R ~ i.i.i.T./._._./._./._._..X.X6X9X6XeXrXrXrXrX9X9X,X.X/._._.e.i.i.R R R q q q                     ",
"                    q q u b R ~ i.i.i.E._._._./._._._._.[..X6X6X6XeXrXrXrXrX9X9X,X[./._._.i.i.i.R R R q q q                     ",
"                    q q u b R ~ 7.i.i.p.E._._._._._._..X$X6XeXeX9XeXrXrXrXrX9XeX1X@X_._.E.l.l.7.R R R q q q                     ",
"                    q q u x Z ~ =.e.e.i.l.E././._._.[..X6XeXrXrXrXrXrXrXrXeX6X9X,X.X_./.E.p.p.e.R R R q q q                     ",
"                    q q r d C R ~ ` ` 7.e.p.b.K.E.E._.,X6XeXrXrXrXrXrXrXrXeX3X3X@X[./.T.l.i.p.7.R R q q q q                     ",
"                          a b R R R R ~ | 7.p.l.V.B./..X=X6XrXrXrXrXrXrXeX6X&X$X[./.E.l.i.7.e.` R R q                           ",
"                          d b R R R R R ~ =.p.p.B.B./..X=X6XrXrXrXrXrXrXeX,X@X@X_.T.b.i.e.` ~ R R R q                           ",
"                          d b R R R R R ~ 7.i.p.b.B.E..X&X6XrXrXrXrXeXeXeX,X@X.X/.T.b.i.7.~ ` R R R q                           ",
"                          d b R R R R R ~ 7.i.p.B.B./.[.=X6XrXrXrXrXeXeXeX,X.X.X/.T.b.i.7.` ` R R R q                           ",
"                          d C Z R R ~ ~ ` e.p.l.E.E._.$X3XeXrXrXrXrXrXrXeX=X.X@X_.B.l.i.| R ~ R R R q                           ",
"                            Z R R ~ ~ =.e.p.l.E././..X3X9XeXrXrXrXrXrXrXeX3X$X$X_.E.l.i.7.~ ~ R R R                             ",
"                            R ~ ~ ` ` e.p.l.E._..X.X$X6XrXrXrXrXrXrXrXrXrXeX3X3X.X_.K.l.7.` | R R R                             ",
"                                i.i.i.i.p.T._.[.1X1X9XeXrXrXrXrXrXrXrXrXrXrX6X6X.X_.E.b.i.i.i.i.                                ",
"                                i.i.i.i.p.E.[.@X9X6XrXrXrXrXrXrXrXrXrXrXrXrX9X9X$X[./.E.i.i.i.i.                                ",
"                                      i.i._._.rXeXeXrXrXrXrXrXrXrXrXrXrXrXrXrXrXrX_._._.i.                                      ",
"                                      i.i._._.rX9XeXrXrXrXrXrXrXrXrXrXrXrXrXrXrXrX_._._.i.                                      ",
"                                      i.i._._.rXeX9XrXrXrXrXrXrXrXrXrXrXrXrXrXrXrX_._._.i.                                      ",
"                                                    rXrXrXrXrXrXrXrXrXrXrXrX                                                    ",
"                                                    rXrXrXrXrXrXrXrXrXrXrXrX                                                    ",
"                                                                                                                                ",
"                                                                                                                                "
};
