/* XPM */
static char *bdd8fd1336e644e2b6978d687902d833gkAmwqFHRdj7E7sU[] = {
/* columns rows colors chars-per-pixel */
"64 64 174 2 ",
"   c None",
".  c red",
"X  c #FF0200",
"o  c #FF0400",
"O  c #FF0700",
"+  c #FF0800",
"@  c #FF0900",
"#  c #FF0A00",
"$  c #FF0C00",
"%  c #FF0D00",
"&  c #FF0E00",
"*  c #FF1000",
"=  c #FF1100",
"-  c #FF1300",
";  c #FF1A00",
":  c #FF2E00",
">  c #FF2F00",
",  c #E63A02",
"<  c #FF3100",
"1  c #FF3200",
"2  c #FF3400",
"3  c #FF3500",
"4  c #FF3600",
"5  c #F13C00",
"6  c #F33E02",
"7  c #FF3800",
"8  c #FF3900",
"9  c #FF3A00",
"0  c #FF3B00",
"q  c #FF3C00",
"w  c #FF3E00",
"e  c #FF3F00",
"r  c #CA5902",
"t  c #D75802",
"y  c #E64502",
"u  c #F14600",
"i  c #F34602",
"p  c #FF4000",
"a  c #FF4100",
"s  c #FF4200",
"d  c #FF4300",
"f  c #FF4400",
"g  c OrangeRed",
"h  c #FF4600",
"j  c #FF4700",
"k  c #F34902",
"l  c #F14D00",
"z  c #FF4800",
"x  c #FF4900",
"c  c #FF4A00",
"v  c #FF4B00",
"b  c #FF4D00",
"n  c #FF4E00",
"m  c #FF4F00",
"M  c #E35100",
"N  c #F35402",
"B  c #FF5100",
"V  c #FF5300",
"C  c #FF5700",
"Z  c #F35D02",
"A  c #FF5800",
"S  c #FF5900",
"D  c #FF5A00",
"F  c #FF5B00",
"G  c #FF5C00",
"H  c #FF5D00",
"J  c #FF5E00",
"K  c #FF5F00",
"L  c #CE7107",
"P  c #CA7B02",
"I  c #E76104",
"U  c #E76504",
"Y  c #E76E04",
"T  c #F16200",
"R  c #F36602",
"E  c #FF6000",
"W  c #FF6100",
"Q  c #FF6200",
"!  c #FF6300",
"~  c #FF6500",
"^  c #FF6600",
"/  c #FF6700",
"(  c #F16E00",
")  c #FF6800",
"_  c #FF6900",
"`  c #FF6A00",
"'  c #FF6B00",
"]  c #FF6C00",
"[  c #FF6D00",
"{  c #FF6E00",
"}  c #FF6F00",
"|  c #E37600",
" . c #E37A00",
".. c #E67C02",
"X. c #F17400",
"o. c #F37602",
"O. c #FF7000",
"+. c #FF7100",
"@. c #FF7200",
"#. c #FF7300",
"$. c #FF7400",
"%. c #FF7500",
"&. c #FF7700",
"*. c #F37F02",
"=. c #FF7800",
"-. c #FF7900",
";. c #FF7B00",
":. c #FF7C00",
">. c #E38100",
",. c #E38200",
"<. c #E68402",
"1. c #FF8100",
"2. c #FF8200",
"3. c #FF8300",
"4. c #FF8500",
"5. c #FF8600",
"6. c #FF8700",
"7. c #F18800",
"8. c #F18D00",
"9. c #FF8800",
"0. c #FF8900",
"q. c #FF8A00",
"w. c #FF8B00",
"e. c DarkOrange",
"r. c #FF8D00",
"t. c #FF8E00",
"y. c #FF8F00",
"u. c #F19600",
"i. c #FF9000",
"p. c #FF9100",
"a. c #FF9200",
"s. c #FF9300",
"d. c #FF9400",
"f. c #FF9500",
"g. c #FF9600",
"h. c #FF9700",
"j. c #FF9800",
"k. c #FF9900",
"l. c #FF9A00",
"z. c #FF9B00",
"x. c #FF9C00",
"c. c #FF9D00",
"v. c #FF9E00",
"b. c #FF9F00",
"n. c #E3A200",
"m. c #FFA000",
"M. c #FFA100",
"N. c #FFA300",
"B. c #FFA400",
"V. c orange",
"C. c #FFA600",
"Z. c #FFA900",
"A. c #FFAB00",
"S. c #FFAE00",
"D. c #FFAF00",
"F. c #E3B100",
"G. c #FFB800",
"H. c #FFBE00",
"J. c #FFBF00",
"K. c #FFC000",
"L. c #FFC300",
"P. c #FFC400",
"I. c #FFC500",
"U. c #FFC600",
"Y. c #FFC700",
"T. c #FFC900",
"R. c #FFCA00",
"E. c #FFCC00",
"W. c #FFCD00",
"Q. c #FFCF00",
"!. c #FFD000",
"~. c #FFD100",
"^. c #FFD300",
"/. c #FFD400",
/* pixels */
"                                                                                                                                ",
"                                                                                                                                ",
"                                              . . . .                                                                           ",
"                                          . . . . . . . . .                                                                     ",
"                                            . . . . . . . . .                                                                   ",
"                                            . . . . . . . . . . .                                                               ",
"                                            . . . . p p p . . . . .                                                             ",
"                                              . . . p p p p p . . . .                                                           ",
"                                              . . . p p p p p p . . . .                                                         ",
"                                                . . . p p p p p p . . . .                                                       ",
"                                                    . p p p p p p . . . . .                                                     ",
"                                                    . p p p p p p p . . . .                                                     ",
"                                  . .               . p p p p p p p p . . .                                                     ",
"                              . . . .               . p p p p p p p p p . .                                                     ",
"                            . . . . .               . p p p p p p p p p p .                                                     ",
"                            . . . . . .             = 4 p p p p p p p p p . . .           . . .                                 ",
"                          . . p p p p . .           & 4 w w p p p p p p p p . .         . . . . .                               ",
"                        . . p p p . . .             & 4 p p p p p p p p p p . . .         . . . . .                             ",
"                      . . p p p . . .           . . & 9 p p p p p p p p p p . . .             . . . .                           ",
"                      . . p p . .             . . . 4 p p p p p p p p p p p . . . .             . . . .                         ",
"                    . . . p p . .             . . . 4 p p p p p p p p p p p . . . .             . . . .                         ",
"                    . . . p p . .             . . . 4 p p p p p p p p p p p . . . .             . . . .                         ",
"                . . . . p p . .             . . . . V F m z j p w w p p p p . . . .             . . p .                         ",
"                . . . . p p . .           . . . . . F / W J z p j j p p p p . . . .             . . p . . .                     ",
"                . . p p p p . . .         . . p p p W ` ` / J j j j p w p p . . .             . . . p . . . .                   ",
"                . . p p p p . . . . .     . . p p p ` ` ] ` ` W W W j p p 4 . . .         . . . . . p . . . .                   ",
"                . . p p p p p p . . . . . . . p p p ` 9.@.] ` W W W j p p 4 . . .     . . . . . < 9 9 9 p p .                   ",
"                . . p p p ` p p p p p . . p p p p p ] 9.e.@.] W W / j p p : + + . . . . + < : 4 9 j m j p p . .                 ",
"                . . p p p ` p p p p p . . p p p p p ` e.e.@.] / W / z p p : + + . . . . O < < 4 9 j m p p p . .                 ",
"                . . p p p ` p p p p p . . p p p p p ` e.e.@.] W W W z p p : + + . . . O + : : 4 9 j V j p p . .                 ",
"                . . p p p ` p p p 9 9 = = p p p p p ` 9.i.e.%./ ` / m p p < = = + + + = ; 4 < p j m V j p p . .                 ",
"                . . p p j W W z p w 9 9 9 w p p z j ` 9.i.i.4.] ] ` W j p w 9 9 4 4 4 < 4 9 9 j F W J p p p . .                 ",
"                . . p p p W / J j w p p w w j p y l ] 9.i.h.e.@.@.] / z j p 5 , , 6 p j j z z V W / J j 4 4 . .                 ",
"                . . p p p j / / z j p p j j w F F t X.e.h.h.i.%.%.%.] / F u , , , i m F W / / ` ` / F j 4 4 . .                 ",
"                . . p p p z / / W z j p j w F F R L | e.h.i.i.e.e.e.4.@./ M u i i N W W @.2.2.2.] / z j 4 4 . .                 ",
"                . . p p p z W / W j z p j F F I R L | 7.h.h.h.e.e.e.4.%.T M i i i F J / ] 2.2.2.@.W m p 4 4 . .                 ",
"                . . p p p z W / / j j p z J / R R L L >.h.i.h.9.e.e.9.%.T M M M k V W / @.2.2.4.] / m j 4 4 . .                 ",
"                . . p p w j / ` / W W j z J / ] Y L L P u.b.h.h.h.h.e.X.T T r M V J ` ] %.e.9.9.@.J z p < 4 . .                 ",
"                . . p p w j W ` ` W W z m J ` %.*.L *.*.n.G.b.h.h.h.i. . .T T Z F W ` %.4.i.i.9.%.W z p p p . .                 ",
"                . . p p 9 j W ` ` / / m W / @.:.e.*.*.F.F.P.b.j.j.j.i.>. . .U ` ` ` ] =.i.i.i.9.` ` p p p p . .                 ",
"                . . . . = w J / / ` ` ` ` @.=.i.N.N.J.T.^.E.P.h.h.h.i.8.<...X.=.%.%.%.e.i.h.h.` ` ] p . . . . .                 ",
"                    . . . p p p ` ` ` ` ` e.h.b.T.E.^.^././.E.N.N.N.j.h.h.i.e.e.9.9.e.h.i.` ` ` p p p . . .                     ",
"                    . . . p p p ` ` ` i.h.h.b.J.E.E././././.^.T.T.T.b.j.h.h.i.h.i.h.h.h.e.` ` ` z p 4 + . .                     ",
"                    . . . p p p ` ` ` h.i.i.j.J.E.E././././.^.T.T.T.b.b.i.h.h.i.h.i.h.i.9.` ` ` j p 4 + . .                     ",
"                    . . . p p p ` ` ` h.h.i.b.J.E.E././.^.^.^.T.E.T.b.j.h.h.i.h.h.i.h.i.e.` ` ` j p 4 + . .                     ",
"                    . . . p p p W @.@.e.h.h.N.K.^.^./././.^.^.^.^.^.T.B.j.h.h.h.h.h.h.e.@.] ] W j p 4 + . .                     ",
"                    . . . p p p / ] ] e.i.h.b.J.E.E.^./././././.^./.^.T.b.h.h.h.i.i.e.] ` / W J p w < + . .                     ",
"                    . . . . p p W ` ] @.9.i.j.N.P.K.^./././././.^./.^.T.J.h.e.e.4.=.] ` W z z j p 9 & O . .                     ",
"                          . p p z / W ` %.9.i.b.A.A.P./././././././.E.A.b.h.:.:.@.] / z p j p p p 4 &                           ",
"                          . p p p z z W ] %.9.h.b.b.J.^././././././.T.A.j.i.=.:.] ` J p p p p p p 4 =                           ",
"                          . p p p z j W ` %.e.i.b.b.K.^././././././.T.A.b.e.=.=.@.` W j p p p p w 4 =                           ",
"                          . p p p j j / ` %.9.h.N.b.J.^././././././.T.A.b.i.=.=.] ` J j p p p p w 4 =                           ",
"                          . p p p j p z / @.:.i.b.b.D.^.^./././././.^.P.B.j.e.i.@.] / z p j p w p 9 -                           ",
"                            p p w j j W ` %.e.h.B.B.P.^././././././.^.^.P.b.h.i.e.@.` / J j j w p 9                             ",
"                            p p j z z / @.4.i.b.P.P.^./././././././.^.^.E.B.j.b.h.e.@.` / z z j p p                             ",
"                                ` ` ] ` %.e.h.b.E.T./././././././././.^.^.E.P.P.j.h.e.] ` ` ` `                                 ",
"                                ` ` ` ` e.h.j.N.E.E././././././././././././.E.E.B.j.e.@.` ` ` `                                 ",
"                                      ` h.i.h./././././././././././././././.E.^./.i.h.` `                                       ",
"                                      ` h.h.h././././././././././././././.^.^.^.^.h.h.` `                                       ",
"                                      ` h.i.i././././././././././././././.^.^.E.^.h.h.` `                                       ",
"                                                    /./././././././././././.                                                    ",
"                                                    /./././././././././././.                                                    ",
"                                                                                                                                ",
"                                                                                                                                "
};
