/* XPM */
static char *_480ec6bb4f54223fea657f92e3f068d1xtQ3DlXX9wR7Wia[] = {
/* columns rows colors chars-per-pixel */
"64 64 6 1 ",
"  c None",
". c #1A1B1E",
"X c #26282B",
"o c #33353A",
"O c #636870",
"+ c #868A93",
/* pixels */
"                                                                ",
"                                                                ",
"                                                                ",
"                                                                ",
"                                                                ",
"                                                                ",
"                                                                ",
"                                                                ",
"                                                                ",
"                            OOOOOOOO                            ",
"                       OOOOO++++++++OOOOO                       ",
"                     OO++++++++++++++++++OO                     ",
"                    O+++++++ooo+Oooo+++++++O                    ",
"                  OO+++++Oooooo+Oooooo+O++++OO                  ",
"                 O++++oo+Oooooo+Oooooo+Ooo++++O                 ",
"                 O+++ooo+OooXXX+OXXXoo+Oooo+++O                 ",
"                O++ooooo+OXXXXX+OXXXXX+Oooooo++O                ",
"              OO++OooooX+OXXXXX+OXXXXX+OXoooo+O+OO              ",
"             O++++OoooXX+OXX...+O...XX+OXXooo+O+++O             ",
"             O++o+OooXXX+O.....+O.....+OXXXoo+Oo++O             ",
"            O+++o+OoXXXX+O.....+O.....+OXXXXo+Oo+++O            ",
"           O+++oo+OXXXX.+O.....+O.....+O.XXXX+Ooo+++O           ",
"           O++ooo+OXXX..+O.....+O.....+O..XXX+Oooo++O           ",
"          O+++ooo+OXX...+O.....+O.....+O...XX+Oooo+++O          ",
"          O++oooo+OX....+O.....+O.....+O....X+Ooooo++O          ",
"          O++oooX+OX....+O.....+O.....+O....X+OXooo++O          ",
"          O++oooX+O.....+O.....+O.....+O.....+OXooo++O          ",
"          O++oooX+O.....+O.....+O.....+O.....+OXooo++O          ",
"         O++oooXX+O.....+O.....+O.....+O.....+OXXooo++O         ",
"         O++oooXX+O.....+O.....+O.....+O.....+OXXooo++O         ",
"         O++oooXX+O.....+O.....+O.....+O.....+OXXooo++O         ",
"         O++oooXX+O.....+O.....+O.....+O.....+OXXooo++O         ",
"         O++oooXX+O.....+O.....+O.....+O.....+OXXooo++O         ",
"         O++oooXX+O.....+O.....+O.....+O.....+OXXooo++O         ",
"         O++oooXX+O.....+O.....+O.....+O.....+OXXooo++O         ",
"         O++oooXX+O.....+O.....+O.....+O.....+OXXooo++O         ",
"          O++oooX+O.....+O.....+O.....+O.....+OXooo++O          ",
"          O++oooX+O.....+O.....+O.....+O.....+OXooo++O          ",
"          O++oooX+OX....+O.....+O.....+O....X+OXooo++O          ",
"          O++oooo+OX....+O.....+O.....+O....X+Ooooo++O          ",
"          O+++ooo+OXX...+O.....+O.....+O...XX+Oooo+++O          ",
"           O++ooo+OXXX..+O.....+O.....+O..XXX+Oooo++O           ",
"           O+++oo+OXXXX.+O.....+O.....+O.XXXX+Ooo+++O           ",
"            O+++o+OoXXXX+O.....+O.....+OXXXXo+Oo+++O            ",
"             O++o+OooXXX+O.....+O.....+OXXXoo+Oo++O             ",
"             O++++OoooXX+OXX...+O...XX+OXXooo+O+++O             ",
"              OO++OooooX+OXXXXX+OXXXXX+OXoooo+++OO              ",
"                O+Oooooo+OXXXXX+OXXXXX+Oooooo++O                ",
"                 O+++ooo+OooXXX+OXXXoo+Oooo+++O                 ",
"                 O++++oo+Oooooo+Oooooo+Ooo++++O                 ",
"                  OO+++++Oooooo+Oooooo++++++OO                  ",
"                    O+++++++ooo+Oooo+++++++O                    ",
"                     OO++++++++++++++++++OO                     ",
"                       OOOOO++++++++OOOOO                       ",
"                            OOOOOOOO                            ",
"                                                                ",
"                                                                ",
"                                                                ",
"                                                                ",
"                                                                ",
"                                                                ",
"                                                                ",
"                                                                ",
"                                                                "
};
