/* XPM */
static char *ef07320e07ef4094bb21d4ae986d943aqA1uNMFW1UySsm6G[] = {
/* columns rows colors chars-per-pixel */
"64 64 8 1 ",
"  c #777E85",
". c #787F86",
"X c #798087",
"o c #7B838A",
"O c #7C838A",
"+ c #7C848B",
"@ c #7D848B",
"# c #7E858C",
/* pixels */
"##o   #  #     +    ###                 ####  ###    #     #### ",
"   ### ##    +    ####                  # #### ###          #   ",
" ####  # @####    # #### #  #          . ######## ###           ",
"##########@+          #    ## # #    ... ########  ###          ",
"##@##########         X## ####    #  . ..####### #####          ",
"##@##########  #    @  ##### ###   o@ ....############ ##       ",
"###@#############   #@  @##########Xo@  .  ## #####@#@@ ##      ",
"###@@############   # #@############X .    #  #####ooo## ##### #",
"###@####   #####O#  #########@#@###X    X  o#####@##@o#######o@@",
"########     ###X#X  #######..#.###X        Xo###o###########o##",
"  ##        ###XXX   # #####@..@# # ##       o  ##### ###### # #",
"  #  #     #  ##X#@.  ######@ @. ###         oo ######   #### ##",
"    ##### #  ######@#####.@#.@.#####           # ############ ##",
"     ############.#.####.@####@### @         ###  #### ###      ",
"   ######  ######. ..@##############@+ #    ###  ####### #      ",
"     #### #######@ #################### @@  ##########          ",
"        @# @@############.@################X##########          ",
"#      #@++ Oo######### @ .@############.@.X######## # ##       ",
"    # ##  o ###########   .@.########.O@...oo@#######           ",
" #  #     o###########       @#####@.@    Xo#@#######.          ",
"   ###     # ###o##### .   . .#####.O..      # ###### #         ",
"    #        Xo# .####.    @ #####.@         ##.####@###        ",
" #         # # #..####......@# @##.@.          #######  #       ",
"X               .@####.... @.#.@#@@..O       ..OO#######        ",
" X              .@.@.  ..######.#..@....    . @O# ######   # #O#",
"X     @@    #   @. .@.@### .##.@@..@@@O  #  @ @##### #.##### .##",
" XX       #  ##     @#@.##@.@#  .O@@..@#       ## # ##X###X##@. ",
"X       @  #### @.@   .#.#@ .#@ . ..O.### # #        #X##  .    ",
"     # ##  #### .@     @      @.   .@@#######       #     #     ",
"     # ######    .      .@  .@     .#.##### ##           ##     ",
"     ##@### ##                    .@##.@####               #    ",
"      o ###  #                    .@.#@... #          #         ",
"      ####              #           O.. .@.@..         .@@@..   ",
"     #####X+          # #         ...@.O.X..X.         O##@..   ",
"    ########          ## #       O.O  . .##@X..       ..###. .  ",
"   o o##### #        ## ###       .     .XX.X#.   ..   O##.@ X  ",
"   ###########  # #  # ####      ... ..@##...     ....  .###o@.@",
"  ############ # ## ######       .O.O@.@##@..   . ....  .###O..@",
"############ #  ##  # ### #       .@##@#####.... ..  .@ @@####@#",
"################      ###### ##   ###########@.# .......########",
"#######  ########     ###### ###O########@.@@###XX    X ########",
"#######   ####### o    #@  # ###@########....#####   ######@####",
"##### # # ######. ##  @  ##############@ ..OO.@@#    ## ###@####",
"######## # ######  . ####### ##########.O.@.....X# #######..@#.#",
"######    # ####   ## ### ##### .@@#####@...O.@.## #####  # @###",
" ######   ####### .@#o@###      @..@#####@.#.@.@#    ###  # .. .",
"    o##o@ #.######@#@ # #   ####.O..#####..X..@.##   # .#   .. .",
"   o @ o@. ######@@### #  ###  #..@@######@@O@#### ##. #.     . ",
"  +# @+++o# ######@##@#     #       ##### X  # ######  ..   ....",
"   o    @o #########             # # ##### #########  ..... .. .",
"ooo@ o       ####### .           #### ### #########    .    .   ",
"   #       #o#X#.##...           # #####   ####### #  ....    . ",
" ###        ##X #X###..X          # ###     ## #.#.##. #        ",
"##@ #          X#####   X     #    ####     ## #....####        ",
"###  @        X  ##     ##   ###     ##      ##########         ",
"###oooo      ##  ## ...##  ####    #         ###...###### #     ",
"####o       #@   # #..X  #### ##    O      ############ ###     ",
"@.##o        #    #  #.######  ....  ##  # # #####.### ###      ",
"  .#oo    #  #     # #   ####.  ...  # ##  #############  ##    ",
"   o@ # ##  #  #   # .# . .. # .  .##   ################# ##    ",
"    ###@ # # #           .      .  @## ############# ######  # #",
"    #@#####            ###      .    ################## ####### ",
"      #### #           ###           o###############   ########",
"     o###              ####           ##################### ### "
};
