/* XPM */
static char *_751cb9fd0c5479fb31a72861ecde0e1vtKVl1VdJ3sGIf25[] = {
/* columns rows colors chars-per-pixel */
"64 64 32 1 ",
"  c #0B2E0E",
". c #0D340F",
"X c #0E3710",
"o c #0E3B11",
"O c #0F4213",
"+ c #104514",
"@ c #114B16",
"# c #135117",
"$ c #145418",
"% c #165B1B",
"& c #17611D",
"* c #18651D",
"= c #196A1F",
"- c #1A6E20",
"; c #1C7422",
": c #1D7C25",
"> c #1F8226",
", c #208527",
"< c #218628",
"1 c #228B29",
"2 c #24942C",
"3 c #259B2E",
"4 c #26A12F",
"5 c #27A330",
"6 c #28A531",
"7 c #29AC33",
"8 c #27B134",
"9 c #28B335",
"0 c #2ABA37",
"q c #2BBD38",
"w c #2CC43A",
"e c #2CC93B",
/* pixels */
"Ooo++$$$$$@oXX %-132214w77;2:#:-o*,*%-<1121591223133;1;=:#@o@...",
"oo#o$+$$$$$oX X,>2322400>81;$%3:$*,<<:;,>1>67243<12;;*;:#@@X+. .",
".oO#%$$$+$oXX%X->3233408,72$;$2$,*;-%%;;<>252<21:2-%:*=$++oXo.O.",
"o.o.%$$$@%;:::-:>>50:200,71;**#1<3;:<<;,;;331::1-:$-$$&O.-...#.X",
". +o+$O*%%;::$<1>>>>2222=2122*:,13;:::<::3;513::*;-$#$%o@$XX+.X#",
"*.X.X+%*%%$$::$:>:>>>>1123=22:*:3:;<<::;;:;2::::;*==*$$+XX.%.@#<",
"5**+++$*&%%-$-:-;>>-**;113=,2-*=:::;::,::;::12;;*=--=%@.o+Xo%@-;",
"*335O@+$%-%$--;-;;;-2;;>:3;:*;;:;==-;::;:;::<2:=;1$%%%=...X@o:-2",
"33;;+@;&;&%%$--$----;-;1>>>==*>;=-=>;:;::=:6;221%<:>%%&$+%oXoX<2",
"44+@$3&$$$%$&%&-===-:;:=>-;=&*===--=;;;;&2:2;12>::;;>-=-=o$@$#:,",
":4:44$%%$%%%$-%&=*=-=-;-*=;=&=*==*%;=;-;2>:>1222>>;-;===*#$@$1<1",
",2<24%$%$@$@o%%%&-=-=@-&-*&&&&===*%=-**&;=132311;1>:;====$$3,1<<",
",4:64$%o#@oo+#%&&**-#-#***&%%$=;;;**==**&:222232<1>;:*==$$$:4666",
"232-%;@o@ooo##%%&&&@@@#&&>%&&*;*=;=&*=&%*223233311>;;-==-%$,4-46",
"33,24%=ooo@@@$%-*@&@-##$&%%&=1=;=;*;=;:<::2133344:*;-=--$$$-<;--",
"636;>;%%=o$$#%$%+&+OOO#&&;&&*1****1:*=>1>1:=>=44:@*;--%$$&#-<62&",
"466;32;##o@$%%$%#+@#O##-<;;22<1=1&--:->>3>>2>>$$o&=*;$o$*O%o$-*>",
"22233<:@+o@#$$%#@#$%$+&-%,$221**>&-2->>>>:->;-oOO&&@&o$o%*<>O**&",
"323::;;:>$$$$%$#####$:O--,11121>>>::;->132-@o&o@&ooO$&@$%$$XOo;*",
"2133:<::>:%$%%%%###+O$:-:2<<1111>1>--->>-:@--@OOO.ooo@@*$$=o>1;:",
"<>,::<-%#%##%$$&%==-Ooo>1>1>>>1>1>>>>:23--;--;oOo.&o@$=;-:o-1:1%",
">1>1<::-><$@%#:$*O@O@OOO:1>&>>>>1>>>1>141-:-;ooX@3o.$#@;-:-;;;1,",
">><:::2#:#,@;&-*;=$=$OOoO>*>;>21>>>>>1111:<%O;o>.%3.$$$$--,;:;-<",
"-:::::::<%:,>>:;*2=$=OOOOO-$O**>@-;>11>1>1<;O;1@1333$$$----:;:;;",
";:;;;;<::::<33;1:>#@=++O*o*=oo1$>>>>>>:>>>>:>>>13313$12$%---;-;;",
"*;;;;;;;::,:<;16>-:&=:oo@O@#O$@o3>>=O;==;->:2>2>12422622:,1--$$;",
"-;;;;-:;::::262364-6e8>o+@oooo+&%@%@OO;>-X:;>>23223334425%<-&%;:",
";;-;;;-;:;:,,324477&8780O:OOOO@O@$@OOOO--$;;>>>>12324325,-&&:-;-",
"*--;;;X;-::,<333778770201o1+oo++@@+@..XX-X;:;><>222213226<<-;-$+",
"o-+**X----:,::5348880e0;e81+++@@+++OOoX%+$Oo-%@:1<11332212:-;<X+",
"oX@$X%@%;-:-;:324778000ew0:7@@@++++Oo%..:+o@@@$%<2>2<223<<1<-+X+",
"&XXXX@----;:;=-7308900eee:5@@+@+OOo+% o3>o:o%%1@:#3>1+:12::::-X+",
"X.+*X;;o=-*;$:q7q,89700086166o@3#OO.;%oo3;,@:%@@##66O>2,>>>>:>3&",
" XX++@+;$;%-:*%:11844990067363#o+Oo&&6O7,,#>-@&##+#=4##,22:::%&3",
"X3@*+@$+*%%%;$;727>>>3377473<63@OO$o;433213>1=@#+@++#O22&:>>&919",
"3333@$$$;%:%%%2::=>4><6724242oX=@&.>8445342>,>,@#OOOO#O-&:;::839",
"3%153*5$%$%%:%%3%O:,,3212223<2X=+=66*841<22,>:@@$@O@@@#oeww2:8e2",
"wq355#<#$$%+%%%$$$%:,%%%223><,;+=:47*814143,:;>$+@O@%&O@O2wwww08",
"w0q5*-+-$#+@+o%%%$:;>;1%>3>1<:,-XX*3524434<>:-;*-=@+@#O0e0e9800w",
"5w651*-+@++%%$@%@$&++o@;%*11;;-%::32736612<><::;$@%@@&&O80009000",
"q65q22$$%++++@$$$o@+@2O3+2**;,*;;:*1<54736,::;-*-#;@++-970080800",
"qq13;3*+%@%%@$%$$@$X@o+X+@@=:;=-:1*3124334,:,:==*-+@+32343888770",
":q<;,;:%$$+#%<1*=$#Xo+XoXo%*o=1;,=;232337=,5:;=;=-+++::324882777",
"q1<1<;;;%%%++%%*:$$Xo::@o@$o;%%%=,<2223843=,,;**-*-:<:<244876,2#",
"2<;1<::*#$&&<#<%;Xo++Xo-@.#$%%%;:222<2237:+;=**;-::-1:<26777,,:7",
"%2<1---**o*;1<;:::::::-;XXX$$$-%>,,,222333=;%==;*;::-,2235-3w,=;",
"<%<+-=Xo*o3333;41:#%*-;*;XXX--*-,<,,2233==+%&$=;;-::::32,,35--*=",
"%+<X+X=X;o633211:<1%*%=*%;X;X--:<::,,==O@O=&%;*;:;::;:<:3%%=:%**",
"%+;++.+oo$3236<6444&&&$*$#&$;%**:::,;2#ooX@@%+&;;::;:,<<;%;:--&*",
".+X+o..@$*33212-&=%<+$#%%;%;*%%*:;1,;;@O##+O$**-;::-%-:<*%%%%&%-",
".X+X;.-$=131262::%&%&++..%+%%**;,,,::;;oXoX#$#&*;;;:;-,<;$%%@&+@",
"X...o;-@+#-<1<54;=++&+X%%%#&**;;=:;;;;:*&O.@+$%&,,;;---;*$#%&@@@",
"   o.o+.++:6,,:%@XX&%+X++O+&-&&*--:;::;;o.$X+X*-<:::-:*-;$$#@@*@",
".6..o.6+-31,12<$...XXX.$++++%&-,-<--&;;@XX$$.;332::;%;;%$#$%Oo.o",
"   .75:q:121,1:#+:+X+#@%%++=;=7==;,*=;=;*@$$%-1211<;:-;,#&%;;;;o",
"0 33556q032<2o5::X.XX+@X$++1-33*:=;-*=&X@@$X.3$222;*;<::1$=O#;oo",
"q1<3336q<<:<%+:o.@++X.@+oeo%e7322;:==-;;-<@82223211-;<;<>;4$;46q",
"43102<3:<<<%:%:@XX.XXX+9oee*:233:;-*-**&<21<34222:>;;;;<1$=O7&;;",
"32221:-,322+;:+o%XX%%X9w:q:;65723;:-==%*=-=64632>=1-;:<;<$342;;q",
"<<32221<%-@<+%ooX%oX1389099q8593;3;-%**&83884741>2=;12:324212121",
"%$11:&-,-@@@%$++.%22789700q87677$$33#%%%;8686443:-;-1312242222<1",
"$<$<<-&%%%++%++o@o<3779qqw9wq97793#;$$2*497776241<::>1<23413111<",
"#$$o1%--&%o%.XX:o1359780w00w09633;2#-%--;=78744131::>>2322221111",
"#;$o-$-%$--X+oo.;:;5787wwwqwqq7263;+%%&%=7=77844;1;:11222321<1<<"
};
