/* XPM */
static char *_6fab5a099014aa59b59b0ed91712414qAVOD42iMC9FfqVL[] = {
/* columns rows colors chars-per-pixel */
"64 64 8 1 ",
"  c #777E85",
". c #787F86",
"X c #798087",
"o c #7B838A",
"O c #7C838A",
"+ c #7C848B",
"@ c #7D848B",
"# c #7E858C",
/* pixels */
"     #####             ###            ####################      ",
"    o ####              ##           ######################     ",
"    #######.             ##         o ##### ##############      ",
"   #########@.        X# ##         ###  ###################    ",
"  @######## @#      ##X # ### #    @###.    ################    ",
"## @###########       X# ### ###    #    ooo ############## ## #",
"###############@#   #@  @####### #o###       ##################o",
"#################   # #@###########X#       +##################@",
"################o#  ##############Xo #      @#  ################",
"################X#X  #############             #################",
"###############XXX   # ############           o#################",
"###############X###   ## ##########        o #@ ########  ##  #+",
"# ################.#################       o@ #########        #",
" ################.. #### ######### @      # ########## #        ",
"X# #################################@+ #@ ##o##########   o     ",
"  ##################################### ####@@########o         ",
" oo###  #.##O#o#########################@.@o####### ##          ",
"  oo#  ##@###O########################### .@#######             ",
" # o####.X@o#########################.@#.O   ########.          ",
"   #      . oo#####################@.@    Xo##########          ",
"  @@o       @@#####################.@.       # ###### #         ",
"  ooo       .o####################.@         ##.####@###        ",
" o## o    .@.@ @##.############### @           #######  #       ",
"   #         ..@..#.############.#@..@       ..Oo#######        ",
" .o    .    .   # ..############@. @..      . @O# ######   # #O#",
"O.Xo   O    #.     .  # #.###     .#@#@  #  @ @##### #.##### .##",
"  @#@.    @..@#@  .  # # ## #    @#@  ##       ## # ##X###X##@. ",
"  .. .@.O .@###        ## ##  .   . @.### # #        #X##  .    ",
"      O##..@#.         #X #       .@########          X # #     ",
"      .##@#@@           # #         .@#######          # ##     ",
"     @#@### #                       .@#####            # # #    ",
"      o ###..                        .##. #           #         ",
"      ####             ##            @#.#  #            # #     ",
"     #####X#            #               # X             ###     ",
"    ########           ####           @###  +         #####     ",
"   o o#######           #            .###+ @#          XX# # o  ",
"   ##########     # X #### # X    .# #######o#   #     X####o@ #",
"  ############     #  ######oo@#   #@#######  X      #X#####@  #",
"############# # X## o#o######o##  @##########X## # #XX  ########",
"##############X#  o @ ###########@.######### ##X#####  # #######",
"################ ##o  @###@###################X@ ##    #########",
"#################  @o @@## ###################@## #     ########",
"################# ## #@@##  ##################### o   # ########",
"##################  ##  #    ################### ## o ####  ## #",
"############### ## @#####     @####################o ###  # +###",
" #################### X#        ##O@#################@##     +X ",
"  ##o##########X########        ..@.###################         ",
"   ########X######### #          @####################          ",
"  +####+#oX#########              o################## ##        ",
"  ooX ##@o #########. #          o###### ###########  +         ",
"  o    #     ######.##            ## #@# #############          ",
"  #        #o#########             X     +## ########           ",
"  ##        #########.#           ##o       #########           ",
"  #o          #########           o           #######@#         ",
"  # o        XX######@X         @@##           #######X         ",
" o#          #  #######        #  ooo        #X######## o       ",
"####o       #@     ###@#@ o   # ####         ########## #     @#",
"@.##o        @     ##### @   @##  # #      ############## o#@@##",
"  .#oo    #  #  # O   #@ # # #  X    #o   # ##################  ",
"   O@ # ##  #  #    .   @.##   .   @o##  ## ##############@     ",
"    ###@ # # #           .       @  ######################      ",
"    #@#####            ###           #####################      ",
"      #### #           ###           o####################      ",
"     o###              ####           ####################      "
};

