/* XPM */
static char *_9788f61e0604301d7f6e120ce658e30vsh5JDoHFVI9fpH8[] = {
/* columns rows colors chars-per-pixel */
"64 64 5 1 ",
"  c None",
". c #557572",
"X c #9EBAAE",
"o c #DCE6DE",
"O c white",
/* pixels */
"                                                                ",
"                           ..........                           ",
"                       ....oooooooooo....                       ",
"                     ..oooooooooooooooooo..                     ",
"                   ..oooooooOOOOOOOOOoooooo..                   ",
"                  .ooooOOOOOOOOOOOOOOOOOOoooo.                  ",
"                 .ooooOOOOOOOOOOOOOOOOOOOOOooo.                 ",
"                .oooOOOOOOOOOOOOOOOOOOOOOOOOooo.                ",
"               .oooOOOOOOOOOOOOOOOOOOOOOOOOOOooo.               ",
"              .oooOOOOOOOOOOOOOOOOOOOOOOOOOOOOooo.              ",
"             .oooOOOOOOOOOOOOOOOOOOOOOOOOOOOOOOooo.             ",
"            .oooOOOOOOOOOOOOOOOOOOOOOOOOOOOOOOOOooo.            ",
"            .ooOOOOOOOOOOOOOOOOOOOOOOOOOOOOOOOOOOoo.            ",
"           .ooOOOOOOOOOOOOOOOOOOOOOOOOOOOOOOOOOOOOoo.           ",
"          .oooOOOOOOOOOOOOOOOOOOOOOOOOOOOOOOOOOOOOooo.          ",
"         .oooOOOOOOOOOOOOOOOOOOOOOOOOOOOOOOOOOOOOOOooo.         ",
"         .ooOOOOOOOOOOOOOOOOOOOOOOOOOOOOOOOOOOOOOOOOoo.         ",
"        .ooOOOOOOOOOOOOOOOOOOOOOOOOOOOOOOOOOOOOOOOOOOoo.        ",
"        .ooOOOOOOOOOOOOOOOOOOOOOOOOOOOOOOOOOOOOOOOOOOoo.        ",
"       .ooOOOOO.OOOOOOO.OOOOOOOOOOOOOOOOOOOOOOOOOOOOOOoo.       ",
"       .ooOOOOO.OOOOOOO.OOOOOOOOOOOOOOOOOOOOOOOOOOOOOOoo.       ",
"       .ooOOOOO.OOOOOOO.OOOOOOOOOOOOOOOOOOOOOOOOOOOOOOoo.       ",
"      .ooOOOOOO.OOOOOOO.OOOOOOOOOOOOOOOOOOOOOOOOOOOOOOOoo.      ",
"      .ooOOOOOO.OOOOOOO.OOOOOOOOOOOOOOOOOOOOOOOOOOOOOOOoo.      ",
"      .ooOOOOOO.OOOOOOO.OOOOOOOOOOOOOOOOOOOOOOOOOOOOOOOoo.      ",
"      .ooOOOOOO.OOOOOOO.OOOOOOOOOOOOOOOOOOOOOOOOOOOOOOOoo.      ",
"      .ooOOOOOO.OOOOOOO.OOOOOOOOOOOOOOOOOOOOOOOOOOOOOOOoo.      ",
"     .ooOOOOOOO.OOOOOOO.OOOOOOOOOOOOOOOOOOOOOOOOOOOOOOOooo.     ",
"     .ooOOOOOOO.OOOOOOO.OOOOOOOOOOOOOOOOOOOOOOOOOOOOOOOOoo.     ",
"     .ooOOOOOOO.OOOOOOO.OOOOOOOOOOOOOOOOOOOOOOOOOOOOOOOOoo.     ",
"     .ooOOOOOOO.OOOOOOO.OOOOOOOOOOOOOOOOOOOOOOOOOOOOOOOOoo.     ",
"     .ooOOOOOOO.OOOOOOO.OOOOOOOOOOOOOOOOOOOOOOOOOOOOOOOOoo.     ",
"     .ooOOOOOOOOOOOOOOOOOOOOOOOOOOOOOOOOOOOOOOOOOOOOOOOOoo.     ",
"     .ooOOOOOOOOOOOOOOOOOOOOOOOOOOOOOOOOOOOOOOOOOOOOOOOOoo.     ",
"     .ooOOOOOOOOOOOOOOOOOOOOOOOOOOOOOOOOOOOOOOOOOOOOOOOOoo.     ",
"     .ooOOOOOOOOOOOOOOOOOOOOOOOOOOOOOOOOOOOOOOOOOOOOOOOOoo.     ",
"     .ooOOOOOOOOOOOOOOOOOOOOOOOOOOOOOOOOOOOOOOOOOOOOOOOOoo.     ",
"     .ooOOOOOOOOOOOOOOOOOOOOOOOOOOOOOOOOOOOOOOOOOOOOOOOOoo.     ",
"     .ooOOOOOOOOOOOOOOOOOOOOOOOOOOOOOOOOOOOOOOOOOOOOOOOOoo.     ",
"     .ooOOOOOOOOOOOOOOOOOOOOOOOOOOOOOOOOOOOOOOOOOOOOOOOOoo.     ",
"     .ooOOOOOOOOOOOOOOOOOOOOOOOOOOOOOOOOOOOOOOOOOOOOOOOOoo.     ",
"     .ooOOOOOOOOOOOOOOOOOOOOOOOOOOOOOOOOOOOOOOOOOOOOOOOOoo.     ",
"     .ooOOOOOOOOOOOOOOOOOOOOOOOOOOOOOOOOOOOOOOOOOOOOOOOOoo.     ",
"     .ooOOOOOOOOOOOOOOOOOOOOOOOOOOOOOOOOOOOOOOOOOOOOOOOOoo.     ",
"     .oooOOOOOOOOOOOOOOOOOOOOOOOOOOOOOOOOOOOOOOOOOOOOOOooo.     ",
"     .XXooOOOOOOOOOOOOOOOOOOOOOOOOOOOOOOOOOOOOOOOOOOOOoooX.     ",
"     .XXXooOOOOOOOOOOOOOOOOOOOOOOOOOOOOOOOOOOOOOOOOOOoooXX.     ",
"     .XXXooOOOOOOOOOOOOOOOOOOOOOOOOOOOOOOOOOOOOOOOOOOooXXX.     ",
"     .XXXXooOOOOOOOOOOOOOOOOOOOOOOOOOOOOOOOOOOOOOOOOooXXXX.     ",
"      .XXXoooOOOOOOOOOOOOOOOOOOOOOOOOOOOOOOOOOOOOOOoooXXX.      ",
"      .XXXXoooOOOOOOOOOOOOOOOOOOOOOOOOOOOOOOOOOOOOoooXXXX.      ",
"      .XXXXXoooOOOOOOOOOOOOOOOOOOOOOOOOOOOOOOOOOOoooXXXXX.      ",
"       .XXXXXoooooooOOOOOOOOOOOOOOOOOOOOOOOOOooooooXXXXX.       ",
"        .XXXXXoooooooooOOOOOOOOOOOOOOOOOOooooooooXXXXXX.        ",
"         .XXXXXXXXXoooooOOOOOOOOOOOOOOOOoooooXXXXXXXXX.         ",
"         .XXXXXXXXXXXXooooOOOOOOOOOOOOOoooXXXXXXXXXXXX.         ",
"          .XXXXXXXXXXXXooooOOOOOOOOOOooooXXXXXXXXXXXX.          ",
"           ...XXXXX..XXXXooooOOOOOoooooXXXX..XXXXX...           ",
"              .....  ..XXXooooooooooooXXX..  .....              ",
"                      ..XXXXXoooooXXXXXX..                      ",
"                        ..XXXXXXXXXXXX..                        ",
"                         ...XXXXXXXX...                         ",
"                            ........                            ",
"                                                                "
};
