/* XPM */
static char *cbf813a4abb24d53eea9e39c342f1f07TNDdqg7GkstYlat5[] = {
/* columns rows colors chars-per-pixel */
"64 64 5 1 ",
"  c None",
". c #557572",
"X c #9EBAAE",
"o c #DCE6DE",
"O c white",
/* pixels */
"                                                                ",
"                           ..........                           ",
"                       ....oooooooooo....                       ",
"                     ..oooooooooooooooooo..                     ",
"                   ..ooooooOOOOOOOOOooooooo..                   ",
"                  .ooooOOOOOOOOOOOOOOOOOOoooo.                  ",
"                 .oooOOOOOOOOOOOOOOOOOOOOOoooo.                 ",
"                .oooOOOOOOOOOOOOOOOOOOOOOOOOooo.                ",
"               .oooOOOOOOOOOOOOOOOOOOOOOOOOOOooo.               ",
"              .oooOOOOOOOOOOOOOOOOOOOOOOOOOOOOooo.              ",
"             .oooOOOOOOOOOOOOOOOOOOOOOOOOOOOOOOooo.             ",
"            .oooOOOOOOOOOOOOOOOOOOOOOOOOOOOOOOOOooo.            ",
"            .ooOOOOOOOOOOOOOOOOOOOOOOOOOOOOOOOOOOoo.            ",
"           .ooOOOOOOOOOOOOOOOOOOOOOOOOOOOOOOOOOOOOoo.           ",
"          .oooOOOOOOOOOOOOOOOOOOOOOOOOOOOOOOOOOOOOooo.          ",
"         .oooOOOOOOOOOOOOOOOOOOOOOOOOOOOOOOOOOOOOOOooo.         ",
"         .ooOOOOOOOOOOOOOOOOOOOOOOOOOOOOOOOOOOOOOOOOoo.         ",
"        .ooOOOOOOOOOOOOOOOOOOOOOOOOOOOOOOOOOOOOOOOOOOoo.        ",
"        .ooOOOOOOOOOOOOOOOOOOOOOOOOOOOOOOOOOOOOOOOOOOoo.        ",
"       .ooOOOOOOOOOOOOOOOOOOOOOOOOOOOOOO.OOOOOOO.OOOOOoo.       ",
"       .ooOOOOOOOOOOOOOOOOOOOOOOOOOOOOOO.OOOOOOO.OOOOOoo.       ",
"       .ooOOOOOOOOOOOOOOOOOOOOOOOOOOOOOO.OOOOOOO.OOOOOoo.       ",
"      .ooOOOOOOOOOOOOOOOOOOOOOOOOOOOOOOO.OOOOOOO.OOOOOOoo.      ",
"      .ooOOOOOOOOOOOOOOOOOOOOOOOOOOOOOOO.OOOOOOO.OOOOOOoo.      ",
"      .ooOOOOOOOOOOOOOOOOOOOOOOOOOOOOOOO.OOOOOOO.OOOOOOoo.      ",
"      .ooOOOOOOOOOOOOOOOOOOOOOOOOOOOOOOO.OOOOOOO.OOOOOOoo.      ",
"      .ooOOOOOOOOOOOOOOOOOOOOOOOOOOOOOOO.OOOOOOO.OOOOOOoo.      ",
"     .oooOOOOOOOOOOOOOOOOOOOOOOOOOOOOOOO.OOOOOOO.OOOOOOOoo.     ",
"     .ooOOOOOOOOOOOOOOOOOOOOOOOOOOOOOOOO.OOOOOOO.OOOOOOOoo.     ",
"     .ooOOOOOOOOOOOOOOOOOOOOOOOOOOOOOOOO.OOOOOOO.OOOOOOOoo.     ",
"     .ooOOOOOOOOOOOOOOOOOOOOOOOOOOOOOOOO.OOOOOOO.OOOOOOOoo.     ",
"     .ooOOOOOOOOOOOOOOOOOOOOOOOOOOOOOOOO.OOOOOOO.OOOOOOOoo.     ",
"     .ooOOOOOOOOOOOOOOOOOOOOOOOOOOOOOOOOOOOOOOOOOOOOOOOOoo.     ",
"     .ooOOOOOOOOOOOOOOOOOOOOOOOOOOOOOOOOOOOOOOOOOOOOOOOOoo.     ",
"     .ooOOOOOOOOOOOOOOOOOOOOOOOOOOOOOOOOOOOOOOOOOOOOOOOOoo.     ",
"     .ooOOOOOOOOOOOOOOOOOOOOOOOOOOOOOOOOOOOOOOOOOOOOOOOOoo.     ",
"     .ooOOOOOOOOOOOOOOOOOOOOOOOOOOOOOOOOOOOOOOOOOOOOOOOOoo.     ",
"     .ooOOOOOOOOOOOOOOOOOOOOOOOOOOOOOOOOOOOOOOOOOOOOOOOOoo.     ",
"     .ooOOOOOOOOOOOOOOOOOOOOOOOOOOOOOOOOOOOOOOOOOOOOOOOOoo.     ",
"     .ooOOOOOOOOOOOOOOOOOOOOOOOOOOOOOOOOOOOOOOOOOOOOOOOOoo.     ",
"     .ooOOOOOOOOOOOOOOOOOOOOOOOOOOOOOOOOOOOOOOOOOOOOOOOOoo.     ",
"     .ooOOOOOOOOOOOOOOOOOOOOOOOOOOOOOOOOOOOOOOOOOOOOOOOOoo.     ",
"     .ooOOOOOOOOOOOOOOOOOOOOOOOOOOOOOOOOOOOOOOOOOOOOOOOOoo.     ",
"     .ooOOOOOOOOOOOOOOOOOOOOOOOOOOOOOOOOOOOOOOOOOOOOOOOOoo.     ",
"     .oooOOOOOOOOOOOOOOOOOOOOOOOOOOOOOOOOOOOOOOOOOOOOOOooo.     ",
"     .XoooOOOOOOOOOOOOOOOOOOOOOOOOOOOOOOOOOOOOOOOOOOOOooXX.     ",
"     .XXoooOOOOOOOOOOOOOOOOOOOOOOOOOOOOOOOOOOOOOOOOOOooXXX.     ",
"     .XXXooOOOOOOOOOOOOOOOOOOOOOOOOOOOOOOOOOOOOOOOOOOooXXX.     ",
"     .XXXXooOOOOOOOOOOOOOOOOOOOOOOOOOOOOOOOOOOOOOOOOooXXXX.     ",
"      .XXXoooOOOOOOOOOOOOOOOOOOOOOOOOOOOOOOOOOOOOOOoooXXX.      ",
"      .XXXXoooOOOOOOOOOOOOOOOOOOOOOOOOOOOOOOOOOOOOoooXXXX.      ",
"      .XXXXXoooOOOOOOOOOOOOOOOOOOOOOOOOOOOOOOOOOOoooXXXXX.      ",
"       .XXXXXooooooOOOOOOOOOOOOOOOOOOOOOOOOOoooooooXXXXX.       ",
"        .XXXXXXooooooooOOOOOOOOOOOOOOOOOOoooooooooXXXXX.        ",
"         .XXXXXXXXXoooooOOOOOOOOOOOOOOOOoooooXXXXXXXXX.         ",
"         .XXXXXXXXXXXXoooOOOOOOOOOOOOOooooXXXXXXXXXXXX.         ",
"          .XXXXXXXXXXXXooooOOOOOOOOOOooooXXXXXXXXXXXX.          ",
"           ...XXXXX..XXXXoooooOOOOOooooXXXX..XXXXX...           ",
"              .....  ..XXXooooooooooooXXX..  .....              ",
"                      ..XXXXXXoooooXXXXX..                      ",
"                        ..XXXXXXXXXXXX..                        ",
"                         ...XXXXXXXX...                         ",
"                            ........                            ",
"                                                                "
};
