/* XPM */
static char *_52bf79d9b614484d781ab862584cfdaLKI3YprPz1NYNBAm[] = {
/* columns rows colors chars-per-pixel */
"64 64 234 2 ",
"   c None",
".  c #0B1010",
"X  c #0C1111",
"o  c #0D1313",
"O  c #0E1414",
"+  c #0E1515",
"@  c #0F1616",
"#  c #121717",
"$  c #121718",
"%  c #111919",
"&  c #131819",
"*  c #121A1A",
"=  c #131B1B",
"-  c #151919",
";  c #151C1D",
":  c #141D1D",
">  c #151D1E",
",  c #141E1E",
"<  c #151E1E",
"1  c #161E1F",
"2  c #161F1F",
"3  c #171F1F",
"4  c #192021",
"5  c #182122",
"6  c #1C2121",
"7  c #192324",
"8  c #192325",
"9  c #1B2627",
"0  c #1F2627",
"q  c #222727",
"w  c #272C2C",
"e  c #567A7D",
"r  c #B76518",
"t  c #B66E2E",
"y  c #CB6D09",
"u  c #CF6E0A",
"i  c #C87724",
"p  c #FF931A",
"a  c #FF931B",
"s  c #FF941A",
"d  c #FF941B",
"f  c #FF951B",
"g  c #FF921C",
"h  c #FF931C",
"j  c #FF911E",
"k  c #FF931E",
"l  c #FF941C",
"z  c #FF961C",
"x  c #FF941E",
"c  c #FF941F",
"v  c #FF961E",
"b  c #FA9221",
"n  c #FC9123",
"m  c #FE9322",
"M  c #FA972B",
"N  c #FA972C",
"B  c #FC9D3A",
"V  c #FF9D3B",
"C  c #FE9E3A",
"Z  c #FA9D3C",
"A  c #FC9C3C",
"S  c #FD9E3C",
"D  c #FD9C3E",
"F  c #F69B40",
"G  c #F59F41",
"H  c #FFA943",
"J  c #FFA944",
"K  c #F6A048",
"L  c #FFA949",
"P  c #FCA84B",
"I  c #FFA94A",
"U  c #FFAA4A",
"Y  c #FFAA4B",
"T  c #FFA94C",
"R  c #FFAB4C",
"E  c #FFAA4D",
"W  c #FFAA4E",
"Q  c #FFB362",
"!  c #F9B467",
"~  c #FFB466",
"^  c #FCB168",
"/  c #FAB568",
"(  c #FBB669",
")  c #FFB468",
"_  c #FFB46A",
"`  c #FBBB7F",
"'  c #5C8185",
"]  c #5F878A",
"[  c #61878C",
"{  c #61898C",
"}  c #61898D",
"|  c #618A8D",
" . c #628A8F",
".. c #628B8F",
"X. c #628C8F",
"o. c #638B90",
"O. c #638C90",
"+. c #648D90",
"@. c #648D91",
"#. c #648E91",
"$. c #658E92",
"%. c #658F92",
"&. c #658E93",
"*. c #659093",
"=. c #669094",
"-. c #669194",
";. c #679195",
":. c #679295",
">. c #689396",
",. c #689397",
"<. c #689497",
"1. c #699498",
"2. c #699599",
"3. c #6A9699",
"4. c #6B979B",
"5. c #6C989C",
"6. c #6C999D",
"7. c #6D9A9D",
"8. c #6D9B9E",
"9. c #6E9B9F",
"0. c #6E9C9F",
"q. c #799A9D",
"w. c #6E9CA0",
"e. c #6F9DA1",
"r. c #709FA2",
"t. c #71A0A4",
"y. c #72A1A5",
"u. c #73A2A6",
"i. c #73A3A7",
"p. c #74A4A8",
"a. c #77A5AD",
"s. c #77A7AC",
"d. c #77A9AD",
"f. c #7DA8AA",
"g. c #78A9AE",
"h. c #7AABB0",
"j. c #7AABB1",
"k. c #7AACB1",
"l. c #7AADB1",
"z. c #7BADB2",
"x. c #7BAEB3",
"c. c #7DADB2",
"v. c #7CB0B4",
"b. c #7DB0B5",
"n. c #7EB1B6",
"m. c #7EB2B7",
"M. c #7FB3B8",
"N. c #7FB4B9",
"B. c #85B2B4",
"V. c #80B3BA",
"C. c #80B4B9",
"Z. c #81B5BB",
"A. c #81B6BB",
"S. c #82B6BC",
"D. c #82B7BD",
"F. c #84B7BD",
"G. c #82B8BD",
"H. c #83B8BD",
"J. c #83B8BE",
"K. c #83B9BE",
"L. c #84B9BD",
"P. c #85B9BD",
"I. c #86BABD",
"U. c #84B9BF",
"Y. c #84BABF",
"T. c #94B3B3",
"R. c #84B9C0",
"E. c #84BAC0",
"W. c #85BAC1",
"Q. c #86BAC2",
"!. c #86BBC2",
"~. c #85BCC1",
"^. c #87BDC3",
"/. c #87BDC4",
"(. c #87BEC4",
"). c #87BFC4",
"_. c #8DBDC0",
"`. c #88BFC5",
"'. c #88BFC6",
"]. c #89C0C6",
"[. c #89C1C6",
"{. c #89C1C7",
"}. c #8DC0C6",
"|. c #8AC2C8",
" X c #8BC2C9",
".X c #8BC3C9",
"XX c #8BC3CA",
"oX c #8EC2C9",
"OX c #8CC4CB",
"+X c #8CC5CB",
"@X c #8DC6CC",
"#X c #8DC7CC",
"$X c #8DC6CD",
"%X c #8EC6CE",
"&X c #8FC7CF",
"*X c #8EC8CE",
"=X c #8FC8CF",
"-X c #8FC9CF",
";X c #9CC0C2",
":X c #9DC2C2",
">X c #99C7C8",
",X c #97CACC",
"<X c #98C8CC",
"1X c #9AC9CD",
"2X c #90C8D1",
"3X c #90C9D1",
"4X c #90CAD0",
"5X c #90CAD1",
"6X c #90CBD1",
"7X c #94CAD1",
"8X c #9BCBD1",
"9X c #9BCDD1",
"0X c #9CCDD1",
"qX c #9ECED1",
"wX c #A4C7C7",
"eX c #A1C8C8",
"rX c #A5C9CA",
"tX c #A7CDCF",
"yX c #BBCECF",
"uX c #BDD1CF",
"iX c #A3CCD1",
"pX c #A3CDD1",
"aX c #A1CFD1",
"sX c #A3CED1",
"dX c #A5CED1",
"fX c #A5CFD1",
"gX c #A6CFD1",
"hX c #A9CED1",
"jX c #A9CFD1",
"kX c #BACED1",
"lX c #BBD0D1",
"zX c #BDD1D0",
"xX c #BCD0D1",
"cX c #BCD1D1",
/* pixels */
"                                                                                                                                ",
"                                                                                                                                ",
"                                                                                                                                ",
"                                                                                                                                ",
"                                                                                                                                ",
"                                                O < , , ; , * , < < < , * 4 < < < :                                             ",
"                                              < / U U T P J b k k k g m y r N k d d 0                                           ",
"                                              < / U U T T J m k d u u u y N k M c v 0                                           ",
"                                              < / R T T U Q J c c B u u i G n m c d 0                                           ",
"                                              < / T U U Q Q A G B Z u u y i G n c d 0                                           ",
"                                              7 ` _ ~ _ ^ Q G A Z B C F i t G A C S 0                                           ",
"                                              7 7 0 0 0 0 7 0 0 7 0 0 0 0 0 0 q 0 0 *                                           ",
"                                                    @                         7                                                 ",
"                                                    o                         $                                                 ",
"                                                    O                         *                                                 ",
"                                                    O                         <                                                 ",
"                                                    o                         3                                                 ",
"                                                    o                         3                                                 ",
"                                                    o                         3                                                 ",
"                                                    o                         3                                                 ",
"                                                    o                         3                                                 ",
"                                                    o                         3                                                 ",
"                                                    o                         3                                                 ",
"                                                    o                         3                                                 ",
"                                                    o                         3                                                 ",
"                                                    o                         3                                                 ",
"                                                    O                         3                                                 ",
"                                                    O                         3                                                 ",
"                                                    O                         3                                                 ",
"                                                    O                         3                                                 ",
"                                                    #                         *                                                 ",
"                                                    -                         q                                                 ",
"                                                  &                             .                                               ",
"                                                - -                             & *                                             ",
"                                            - *                                     w 6                                         ",
"                                          -                                             -                                       ",
"                                        & &                                             & *                                     ",
"                                      * B.L.;X;XuXzXzXzXT.hXc.Q.!.J.!.!.~.~.!.V.%.' e [ F.S.-                                   ",
"                                    - $ |.$XsXdXkXkXkXkX_.hX6X6X4X4X6X6X6X6X6X6XL.M.8.=.h.L.* &                                 ",
"                                  * ].6X6XXXdXdXzXzXzXzXeXdX$X6X4X4X6X6X6X6X6X6X6X6Xy.&.,.%.k.6X*                               ",
"                                  - `.6X6X6X$X_.jXrXrXhX_.6X6X6X6X6X6X6X6X6X6X6X6X6X$X|.8.| S.6X*                               ",
"                                * $ 6X6X6X6X6X2XaXfXdXsXoX2X6X6X6X6X6X6X6X6X6X6X6X6X4X6X8.O.A.6X$ -                             ",
"                              & L.$X$X6X6X6X6X6XXX6X3X3X2X6X6X6X6X6X6X6X6X6X6X6X6X6X6X6Xy.X.=.=.`.,X&                           ",
"                              * `.6X6X6X6X6X6X6X6X3X6X3X6X6X6X6X6X6X6X6X6X6X6X6X6X4X|.!.0.=.>.=.XX4X*                           ",
"                              & !.6X6X6X6X6X6X6X6X6X6X4X6X4X6X6X6X6X6X6X6X6X6X6X6X6Xp.*.=.=.=.=.W.4X%                           ",
"                            & $ c.$X6X6X6X6X6X6X6X6X6X6X4X6X6X6X6X6X6X6X6X6X6X6X6X6Xe.=.=.<.=.%.N.R.& %                         ",
"                          - 6X6X8.=.6X6X6X6X6X6X6X6X6X6X6X6X6X6X6X6X6X6X6X6X6X6X6X6Xr.=.=.=.*.=.| =.S.6X$                       ",
"                          $ 6X$X,.%.r.r.$X6X6X6X6X6X6X6X6X6X6X6X6X6X6X6X6X6X6X6Xd.e.6.=.=.| | *.=.,.a.6X-                       ",
"                          $ 6X$X=.,.=.<.^.,X6X6X6X6X6X6X6X6X6X6X6X6X6X6X6X6X6X,X5.| =.=.=.=.=.=.=.<.N.4X$                       ",
"                          - 6X$X<.5.X.=.>.y.4X6X6X6X6X6X6X6X6X6X6X6X6X6X6X6Xk.>.| 5.=.=.=.=.=.=.=.4.x.4X-                       ",
"                          - 6X$X,.1...%.=.>.n./.6X4X4X4X4X4X6X6X{.J.{.J.J.N.0.| =.X.5.=.| =.=.=.>.o.g.6X&                       ",
"                          $ 1X1X4.X.%.,.O.<.=.6.|.6X6X6X6X6X6X-Xp.O.>.3.<.>.>.=.=.=.| | | =.=.=.] 4.J.6X*                       ",
"                          $ 0X0X4.| %.X.<.*.| X.a.n.m.m.m.m.m.n.0.*.O.3.3.%.=.>.=.*.*.%.=.=.=.=.>.=.x.6X&                       ",
"                          * 0X1X<.=.%.,.*.%.=.4.=.O.X.X.O.O.X.X.*.>.*.O.3.3.3.=.=.=.*.=.=.=.<.=.O.O.h.6X-                       ",
"                            * $ >X0X,.%.=.=.=.=.<.>.=.>.=.*.>.*.<.<.X.3.1.3.=.=.=.=.<.*.%.=.=.=.R.6X* *                         ",
"                              - sX>XX.*.*.<.4.,.O.=.=.] =.>.>.>.<.X.<.<.X.X.=.=.=.=.=.%.%.X.,.*.{.6X*                           ",
"                              * |.|.a.&.&.4.%.o.<.=.<.=.] =.*.*.<.<.X.<.X.=.*.>.>.>.| =.=.=.4...!.6X*                           ",
"                              & f.a.|.a.&.O.%.%.O.O.] ] ] *.*.*.<.=.>.>.X.%.X.X.O.O.>.=.6.e.4.8.& & &                           ",
"                                - $ !.6X4Xq.o.[ ] O.] *.*.*.&.,.<.>.>.>.>.>.1.>.>.>.<.<.XX6X-X6X&                               ",
"                                  & $ * * $ L.].] ] ] *.*.*.4XXXoXoX.X.X.XoXoXoXXXXXXX/.* * * #                                 ",
"                                          - OX$X4X4X4X4X6X6X,X4X4X4X4X,X-X-X-X-X,X*X4XR.-                                       ",
"                                            & * * $ $ * & * $ $ $ * * * * - - * & * $ &                                         ",
"                                                                                                                                ",
"                                                                                                                                "
};

