/* XPM */
static char *_ef604f0d4454329d58ebf221854684aWMy0JCxmpwx5Wp8G[] = {
/* columns rows colors chars-per-pixel */
"64 64 112 2 ",
"   c None",
".  c #3C3C3C",
"X  c #B4650E",
"o  c #B36F28",
"O  c #C76D00",
"+  c #CB6E00",
"@  c #C5781B",
"#  c #F9960C",
"$  c #F9980D",
"%  c #F49415",
"&  c #F99512",
"*  c #F69219",
"=  c #F49922",
"-  c #F79F35",
";  c #F99F35",
":  c #F49E3A",
">  c #F8A035",
",  c #F0A13B",
"<  c #FAAB3D",
"1  c #F1A243",
"2  c #F7AA46",
"3  c #FAAC46",
"4  c #FAAC49",
"5  c #FAB55F",
"6  c #F6B666",
"7  c #FAB665",
"8  c #F7B867",
"9  c #FAB668",
"0  c #F7BD7E",
"q  c #465496",
"w  c #475A9A",
"e  c #495C9E",
"r  c #55639F",
"t  c #4B5EA2",
"y  c #4D61A5",
"u  c #4F62A9",
"i  c #5564A3",
"p  c #5164AD",
"a  c #5768AA",
"s  c #5868AE",
"d  c #5266B2",
"f  c #5468B3",
"g  c #5A6CB5",
"h  c #5563BA",
"j  c #566AB9",
"k  c #596DBD",
"l  c #5E72B5",
"z  c #5E71BE",
"x  c #5A6EC2",
"c  c #5D72C6",
"v  c #5E74CA",
"b  c #6479C0",
"n  c #6A7FC2",
"m  c #6176CC",
"M  c #6279CB",
"N  c #687DC9",
"B  c #6176D1",
"V  c #667CD7",
"C  c #6379D4",
"Z  c #6B7ED3",
"A  c #6A7DD6",
"S  c #647BD8",
"D  c #657BD8",
"F  c #667BD9",
"G  c #667CD8",
"H  c #667DD8",
"J  c #677DD8",
"K  c #667CD9",
"L  c #677DD9",
"P  c #677ED9",
"I  c #677DDA",
"U  c #677EDB",
"Y  c #677ADC",
"T  c #667CD9",
"R  c #687EDB",
"E  c #687BDF",
"W  c #687DDD",
"Q  c #687FDC",
"!  c #697FDC",
"~  c #687FDD",
"^  c #687CDF",
"/  c #697EDE",
"(  c #697FDE",
")  c #697EDD",
"_  c #6D82CA",
"`  c #7187CD",
"'  c #6880D9",
"]  c #6980DD",
"[  c #6A80DD",
"{  c #6980DE",
"}  c #6A80DD",
"|  c #7083DE",
" . c #7B8FD9",
".. c #7D93DC",
"X. c #8B9CCF",
"o. c #8097D5",
"O. c #8296DE",
"+. c #8C9BDE",
"@. c #8C9DDE",
"#. c #8C9FDE",
"$. c #889FDE",
"%. c #8FA1DE",
"&. c #8FA3DE",
"*. c #93AAD1",
"=. c #94A5DC",
"-. c #A3B4D4",
";. c #A3B5D4",
":. c #A6B5D6",
">. c #B5C1D9",
",. c #B5C2D8",
"<. c #C9CFDB",
"1. c #D1DDDC",
/* pixels */
"                                                                                                                                ",
"                                                                                                                                ",
"                                                                                                                                ",
"                                                                                                                                ",
"                                                                                                                                ",
"                                                . . . . . . . . . . . . . . . . .                                               ",
"                                              . 6 3 3 3 3 < % # & # * O X = & # # .                                             ",
"                                              . 6 3 3 4 3 < * & # + + O = & = # $ .                                             ",
"                                              . 6 3 3 3 3 5 < & & + + @ 1 & & # # .                                             ",
"                                              . 8 3 3 3 5 7 - , > + + O @ 1 # # $ .                                             ",
"                                              . 0 7 7 7 6 5 , - - > : @ o 1 : ; > .                                             ",
"                                              . . . . . . . . . . . . . . . . . . .                                             ",
"                                                    .                       .                                                   ",
"                                                    .                       .                                                   ",
"                                                    .                       .                                                   ",
"                                                    . 1.                    .                                                   ",
"                                                    . 1.                    .                                                   ",
"                                                    . 1.1.                  .                                                   ",
"                                                    . 1.1.                  .                                                   ",
"                                                    . 1.1.                  .                                                   ",
"                                                    . 1.1.                  .                                                   ",
"                                                    . 1.1.                  .                                                   ",
"                                                    . 1.                    .                                                   ",
"                                                    .                       .                                                   ",
"                                                    .                       .                                                   ",
"                                                    .                       .                                                   ",
"                                                    .                       .                                                   ",
"                                                    .                       .                                                   ",
"                                                    .                       .                                                   ",
"                                                    .                       .                                                   ",
"                                                    .                       .                                                   ",
"                                                    .                       .                                                   ",
"                                                  .                           .                                                 ",
"                                                . .                           . .                                               ",
"                                            . . { %.%.{ { { { { { { { { { ( { { { . .                                           ",
"                                          . { %.%.*.*.%.%.{ { { { { { { C x j f q { [ .                                         ",
"                                        . . { *.:.,.,.:.*.%.{ { { { { { B x j p d d p / .                                       ",
"                                        . M X.*.,.<.<.,.*.=.{ { { { { { F v k h d d p m .                                       ",
"                                      . F F @.*.,.<.<.,.*.+.( { { { { { U C v x k f d p v .                                     ",
"                                    . C ( G %.*.-.,.,.-.*.%.R { { { { ~ ~ ^ C v x k f p e { .                                   ",
"                                    . B { ( E Z *.*.*.*.` | ( ( { { { { { { ^ S v c j u j i .                                   ",
"                                  . R R { { ( R @.%.%.@.R E { { { { { { { { ] ] S C x d d p ( .                                 ",
"                                . M { R { { ( ( F ~ ( ( E { { { { { { { { { { ] ^ S x f d k g { .                               ",
"                                . B { { { ( ( ( ( ( ( E { { { { { { { { { { { ] ] v x d d k x i .                               ",
"                                . m { { { { { { { { { ( { ~ { { { { { { { { ] ] C c f p d f j d .                               ",
"                              . ( z ' R { { { { { { { { ~ { { { { { { { { { ] S v j d u u d f j ( .                             ",
"                            . { ( u e M V ( { { { { { { ( { { { { { { { { { ^ B x d u t t u d j g { .                           ",
"                            . ( G t e k m R { { { { { { { { { { { { { { { ~ C c d u t t t t u h c i .                           ",
"                            . { v f u p k M ' ] ] ] { { ] ] ] ] { { { { Y C x f t t w t w t u j g i .                           ",
"                            . { c f e u u c v V ] ] { { ] ^ ] ] ^ G G C B x d t w t t w w t y h f i .                           ",
"                            . ( c f u e y u j v C ^ ~ ~ ] ] ] S M c c c k p t e q t w t w t t d j i .                           ",
"                            .  ._ g y e e y u j v B S S C S S v x f d p p t e e t w w w w w t d k { .                           ",
"                            . ..O.l i e e t t t d k k x k k k j u y e y w t e e w w w w w e t d c ( .                           ",
"                            . O. .b l p e e t t t y u u u u u y y t e e t t w t w t t w t t u j g ( .                           ",
"                              . ' o._ s p e e t t w e e t t t y t e e e t t t w t w w w t u j g ( .                             ",
"                                . %._ g p e e e e e e e w e e e e y e e w t w t w t w w t f c g .                               ",
"                                . V C g p t e w w w w w w w e e t e e e e e e e e e e e t d B { .                               ",
"                                  . j f g p y w w w w w w w e e t t e y e e i e e e u p j s { .                                 ",
"                                    . C i a g p w w w w t y p s s f f f f f f a f d y R { { .                                   ",
"                                      . . { g k f f f f f k c v v c c c c v c c c c M { . .                                     ",
"                                          . G ' ' ] ] ] { { } } { | ' | ' ' ' ' ( ( m .                                         ",
"                                            . . . . . . . . . . . . . . . . . . . . .                                           ",
"                                                                                                                                ",
"                                                                                                                                "
};
