/* XPM */
static char *faf968bd13944947af719bb5fc17a4b9ycpNc7eq4FcklOv4[] = {
/* columns rows colors chars-per-pixel */
"64 64 112 2 ",
"   c None",
".  c #3C3C3C",
"X  c #B4650E",
"o  c #B36F28",
"O  c #C76D00",
"+  c #CB6E00",
"@  c #C5781B",
"#  c #F9960C",
"$  c #F9980D",
"%  c #F49415",
"&  c #F99512",
"*  c #F69219",
"=  c #F49922",
"-  c #F79F35",
";  c #F99F35",
":  c #F49E3A",
">  c #F8A035",
",  c #F0A13B",
"<  c #FAAB3D",
"1  c #F1A243",
"2  c #F7AA46",
"3  c #FAAC46",
"4  c #FAAC49",
"5  c #FAB55F",
"6  c #F6B666",
"7  c #FAB665",
"8  c #F7B867",
"9  c #FAB668",
"0  c #F7BD7E",
"q  c #497495",
"w  c #4A7A97",
"e  c #4C7D9C",
"r  c #4F7FA0",
"t  c #4F809E",
"y  c #58829F",
"u  c #4F81A0",
"i  c #5184A4",
"p  c #5984A1",
"a  c #5788A7",
"s  c #5387A9",
"d  c #558AAC",
"f  c #598BAD",
"g  c #5C90AF",
"h  c #578CB1",
"j  c #598EB2",
"k  c #598BB9",
"l  c #5B91B5",
"z  c #5C95BB",
"x  c #5E98BD",
"c  c #6193B5",
"v  c #6199BE",
"b  c #689EBF",
"n  c #5F99C0",
"m  c #629DC5",
"M  c #659FCC",
"N  c #64A0C7",
"B  c #6BA1C4",
"V  c #65A2CC",
"C  c #6AA4CA",
"Z  c #73AACB",
"A  c #67A5D1",
"S  c #6AA7D3",
"D  c #6BAAD7",
"F  c #6BABD6",
"G  c #6AA9D5",
"H  c #6FA9D5",
"J  c #6BACD7",
"K  c #6CACD7",
"L  c #6BA9D4",
"P  c #6BABD8",
"I  c #6CABD8",
"U  c #6CA9DA",
"Y  c #6CADD8",
"T  c #6CACD9",
"R  c #6DAED8",
"E  c #6CADDA",
"W  c #6DADDA",
"Q  c #6EACDB",
"!  c #6DAEDB",
"~  c #6EAEDB",
"^  c #6DABDD",
"/  c #6EACDD",
"(  c #6DAFDC",
")  c #6EAFDC",
"_  c #6FAFDC",
"`  c #6EAEDD",
"'  c #6EAFDD",
"]  c #6FAEDC",
"[  c #70A9D2",
"{  c #6EB0DD",
"}  c #6EB0DD",
"|  c #74B0DD",
" . c #7FB5D8",
".. c #7EB9D8",
"X. c #8DB7CE",
"o. c #84B9D4",
"O. c #83BADD",
"+. c #8FBCDD",
"@. c #8FBEDD",
"#. c #8FBFDD",
"$. c #8CC0DD",
"%. c #95C3D0",
"&. c #97C2DA",
"*. c #92C1DD",
"=. c #92C2DC",
"-. c #A5C7D3",
";. c #A5C8D3",
":. c #A8C8D5",
">. c #B6CFD8",
",. c #B6D0D7",
"<. c #C9D7DB",
"1. c #D1DDDC",
/* pixels */
"                                                                                                                                ",
"                                                                                                                                ",
"                                                                                                                                ",
"                                                                                                                                ",
"                                                                                                                                ",
"                                                . . . . . . . . . . . . . . . . .                                               ",
"                                              . 6 3 3 3 3 < % # & # * O X = & # # .                                             ",
"                                              . 6 3 3 4 3 < * & # + + O = & = # $ .                                             ",
"                                              . 6 3 3 3 3 5 < & & + + @ 1 & & # # .                                             ",
"                                              . 8 3 3 3 5 7 - , > + + O @ 1 # # $ .                                             ",
"                                              . 0 7 7 7 6 5 , - - > : @ o 1 : ; > .                                             ",
"                                              . . . . . . . . . . . . . . . . . . .                                             ",
"                                                    .                       .                                                   ",
"                                                    .                       .                                                   ",
"                                                    .                       .                                                   ",
"                                                    . 1.                    .                                                   ",
"                                                    . 1.                    .                                                   ",
"                                                    . 1.1.                  .                                                   ",
"                                                    . 1.1.                  .                                                   ",
"                                                    . 1.1.                  .                                                   ",
"                                                    . 1.1.                  .                                                   ",
"                                                    . 1.1.                  .                                                   ",
"                                                    . 1.                    .                                                   ",
"                                                    .                       .                                                   ",
"                                                    .                       .                                                   ",
"                                                    .                       .                                                   ",
"                                                    .                       .                                                   ",
"                                                    .                       .                                                   ",
"                                                    .                       .                                                   ",
"                                                    .                       .                                                   ",
"                                                    .                       .                                                   ",
"                                                    .                       .                                                   ",
"                                                  .                           .                                                 ",
"                                                . .                           . .                                               ",
"                                            . . { *.*.{ { { { { } } } } } ' } } | . .                                           ",
"                                          . ' #.*.%.%.*.*.{ { { } } } } S m j j q ' ' .                                         ",
"                                        . . ` %.:.>.>.:.%.*.` { } } } } A z l d h j d ' .                                       ",
"                                        . C X.%.>.<.<.>.%.&.{ { } } } } G V z k h h d M .                                       ",
"                                      . L F #.%.,.<.<.,.%.+.' } } } } } E G M n z j h a V .                                     ",
"                                    . L ` F *.%.;.,.,.;.%.*.` } } } } } } E A M n z j d e | .                                   ",
"                                    . V { ` U [ %.%.%.%.Z | ' ' } } } } } } E G V n z d l i .                                   ",
"                                  . ~ ~ { { ` ` $.*.*.$.H / } } } } } } } } } } G A n d d f ' .                                 ",
"                                . C ~ ~ { { ` ` P E ` ` / } } } } } } } } } } } E G n j h z l ` .                               ",
"                                . A ~ { { { { { } ` ` ^ ' } } } } } } } } } } } E V n j h z v a .                               ",
"                                . V { { { { { { } } } ` } E } } } } } } } } } } A n l h d l l h .                               ",
"                              . ` v R { { { { { } } } } } } } } } } } } } } } J V z d d d d h j ` .                             ",
"                            . { ` s t N G ~ { { } } } } } } } } } } } } } } E A n h s u u s d z l ` .                           ",
"                            . | K t e z V ~ { { } } } } } } } } } } } } } } A n j s r e r r d k m y .                           ",
"                            . { m l u f z V J } } } } } } } } } ( ( ( ( E G n h r r r q e r s l j p .                           ",
"                            . { m l i i d x V E E } } E } } } E ( E J J A n h i r r r r w r s l j p .                           ",
"                            . ` B l i t u s z V G E } E } } E J A m m n z d u w w w w r e r u j l y .                           ",
"                            .  .B c i e u u s j m A G G A J A M n h h d s u e u w r w w r w u h z | .                           ",
"                            . O.O.c a t e r i i h z z z z n x z d u t u w u u w r w w r e t u h m ` .                           ",
"                            . O...b c a t e e i s u s s s s s u u u t t u u e r w r r w e u s l l ` .                           ",
"                              . } o.B g i t e r t e e t u u u u t t t t u u r w w r w r r s l l { .                             ",
"                                . $.Z l a i e e t e e e w e t t t t t t w u e r r w r w u h M c .                               ",
"                                . G L z a i e e e w w w w t t t t t t t t t w t e e t u u h A { .                               ",
"                                  . k h l a i e w w w w w w w t t t t t t t t t t t u d j f } .                                 ",
"                                    . V p a l a r e t w t u d g d h h j j d d j l f i K } } .                                   ",
"                                      . . | c z j h h h l z x N N N N m N N m N m m C { . .                                     ",
"                                          . P ` ( ( } } } | } } | } } } R ( R ( ~ ` V .                                         ",
"                                            . . . . . . . . . . . . . . . . . . . . .                                           ",
"                                                                                                                                ",
"                                                                                                                                "
};
