/* XPM */
static char *_dbe7092efba4eebb2d8261d18b67da1bNZ6ZuRaYCMyUVEz[] = {
/* columns rows colors chars-per-pixel */
"64 64 109 2 ",
"   c None",
".  c #3E3E3E",
"X  c #B76518",
"o  c #B66E2E",
"O  c #CE6E0A",
"+  c #C87724",
"@  c #FF941D",
"#  c #FC9222",
"$  c #FA972C",
"%  c #FD9D3C",
"&  c #F59E41",
"*  c #FFA944",
"=  c #F6A048",
"-  c #FFAA4B",
";  c #FEB364",
":  c #FCB469",
">  c #FBBB7F",
",  c #468A93",
"<  c #469197",
"1  c #479298",
"2  c #49959B",
"3  c #4A989E",
"4  c #54969D",
"5  c #4C9CA3",
"6  c #539CA3",
"7  c #4EA0A7",
"8  c #4FA1A9",
"9  c #54A0A7",
"0  c #52A5AD",
"q  c #53A8AE",
"w  c #53A7B2",
"e  c #54ABB3",
"r  c #59ABB2",
"t  c #56AFB8",
"y  c #57B1BA",
"u  c #59B3BC",
"i  c #62B7BD",
"p  c #68BABF",
"a  c #5AB7C1",
"s  c #5CBBC4",
"d  c #5DBFC9",
"f  c #62BEC6",
"g  c #60BDCC",
"h  c #5FC2CB",
"j  c #6AC1C7",
"k  c #60C3CE",
"l  c #6EC5CA",
"z  c #60C5D0",
"x  c #61C6D0",
"c  c #62C7D0",
"v  c #62C6D1",
"b  c #61C7D2",
"n  c #62C7D2",
"m  c #64C6D3",
"M  c #62C7D1",
"N  c #69C5D0",
"B  c #68C6D3",
"V  c #62C8D3",
"C  c #63C8D4",
"Z  c #62C9D4",
"A  c #63C9D4",
"S  c #63CAD4",
"D  c #63CAD5",
"F  c #63CBD5",
"G  c #63CBD6",
"H  c #64C8D5",
"J  c #64CBD5",
"K  c #64CBD6",
"L  c #64CCD6",
"P  c #65CDD6",
"I  c #64CCD7",
"U  c #64CAD6",
"Y  c #65C9D8",
"T  c #66CBDB",
"R  c #64CDD8",
"E  c #65CDD8",
"W  c #66CCD9",
"Q  c #65CED9",
"!  c #66CED9",
"~  c #66CCDB",
"^  c #65CFDA",
"/  c #66CFDA",
"(  c #67CFDA",
")  c #66CEDB",
"_  c #66CFDB",
"`  c #67CFDA",
"'  c #6DCEDB",
"]  c #78CFD6",
"[  c #66D0DB",
"{  c #66D0DB",
"}  c #77D3D6",
"|  c #7DD0D2",
" . c #7CD4DB",
".. c #8FCFCA",
"X. c #88C9CC",
"o. c #89D2DB",
"O. c #89D4DB",
"+. c #89D6DB",
"@. c #8CD6DB",
"#. c #85D8DB",
"$. c #8CD8DB",
"%. c #91D5D9",
"&. c #A0D2CF",
"*. c #A0D2D0",
"=. c #A3D4D3",
"-. c #B2D6D3",
";. c #B2D7D5",
":. c #C7DAD9",
">. c #CFDCDB",
/* pixels */
"                                                                                                                                ",
"                                                                                                                                ",
"                                                                                                                                ",
"                                                                                                                                ",
"                                                                                                                                ",
"                                                . . . . . . . . . . . . . . . . .                                               ",
"                                              . : - - - - * # @ @ @ # O X $ @ @ @ .                                             ",
"                                              . : - - - - * # @ @ O O O $ @ $ @ @ .                                             ",
"                                              . : - - - - ; * # @ O O + = @ # @ @ .                                             ",
"                                              . : - - - ; ; % & % O O O + = @ @ @ .                                             ",
"                                              . > : ; : ; ; & % % % & + o = % % % .                                             ",
"                                              . . . . . . . . . . . . . . . . . . .                                             ",
"                                                    .                       .                                                   ",
"                                                    .                       .                                                   ",
"                                                    .                       .                                                   ",
"                                                    . >.                    .                                                   ",
"                                                    . >.                    .                                                   ",
"                                                    . >.>.                  .                                                   ",
"                                                    . >.>.                  .                                                   ",
"                                                    . >.>.                  .                                                   ",
"                                                    . >.>.                  .                                                   ",
"                                                    . >.>.                  .                                                   ",
"                                                    . >.                    .                                                   ",
"                                                    .                       .                                                   ",
"                                                    .                       .                                                   ",
"                                                    .                       .                                                   ",
"                                                    .                       .                                                   ",
"                                                    .                       .                                                   ",
"                                                    .                       .                                                   ",
"                                                    .                       .                                                   ",
"                                                    .                       .                                                   ",
"                                                    .                       .                                                   ",
"                                                  .                           .                                                 ",
"                                                . .                           . .                                               ",
"                                            . . [ @.@.[ [ [ [ [ { { { { { { { { { . .                                           ",
"                                          . { @.@.....@.@.[ [ [ { { { { z u e e , { { .                                         ",
"                                        . . { ..=.;.;.=...@.[ [ { { { { h y e 8 0 e 9 ) .                                       ",
"                                        . f X...-.:.:.-...%.[ [ { { { { F h y e 0 8 8 d .                                       ",
"                                      . n m @...-.:.:.-...o.) { { { { { R b d u t e w 6 d .                                     ",
"                                    . n ) G @...*.-.-.&...@.) { { { { { { R z d a t e 0 1 { .                                   ",
"                                    . h { ) Y B ........l ' ) { { { { { { { R b h s t 5 e 6 .                                   ",
"                                  . P ) { { ) ) @.@.@.#.B Y { { { { { { { { { { b z a 8 0 9 ) .                                 ",
"                                . f ) P [ [ ) ) G ) ) ) Y { { { { { { { { { { { R z a w 0 y r ( .                               ",
"                                . k [ [ [ [ [ [ ) ) ) ) { { { { { { { { { { { { { h y w w t u 6 .                               ",
"                                . f { { [ [ [ [ [ [ [ ) [ [ [ [ { { { { { { { { z a t 8 w e e 0 .                               ",
"                              . ) u P { [ [ [ [ [ [ [ [ ) [ [ [ { { { { { { { G d y 8 5 8 0 w e ) .                             ",
"                            . { ) 7 2 s S ) [ [ [ [ [ [ [ [ [ [ { { { { { { R h u w 5 5 5 5 8 t r { .                           ",
"                            . { P 2 2 t h P [ [ [ [ [ [ [ [ [ [ { { { { { ^ z a q 5 3 2 2 5 8 e s 4 .                           ",
"                            . { s q 5 0 t k S P [ [ [ [ [ [ [ [ [ ) [ ) Y z a 0 5 5 5 1 < 5 8 e w 4 .                           ",
"                            . { s q 3 5 9 u h S ) [ ) [ ) [ [ F F G G G h a 8 5 1 2 1 1 < 3 5 e w 4 .                           ",
"                            . ) f r 5 2 5 7 t h S [ [ ) ) ) F S h s a a t 8 5 < < 2 1 1 < 2 5 8 r 4 .                           ",
"                            . ] f r 3 2 2 3 7 e a h x x S z S h y e e 8 8 5 2 2 2 1 1 1 1 2 5 0 u { .                           ",
"                            .  . .r 9 3 2 2 5 5 e y y y y y y e 7 2 2 5 < 5 1 2 1 1 < 2 1 2 5 0 a ) .                           ",
"                            .  .} i r 9 2 2 2 5 5 5 5 7 7 7 7 7 5 2 3 2 5 2 2 2 2 1 2 2 1 5 7 e r ) .                           ",
"                              . [ | p q 6 2 2 2 1 1 2 3 3 3 3 3 3 2 3 3 5 1 2 1 2 2 < 2 2 9 t r { .                             ",
"                                . +.j t 6 5 2 2 1 2 3 1 < 1 3 2 2 3 2 3 2 2 2 2 2 2 < 2 3 w s r .                               ",
"                                . n n r 9 5 1 1 < < < < < < 2 2 2 2 2 2 2 2 2 2 2 2 2 2 2 q g { .                               ",
"                                  . w w e 9 5 2 < < < < < < 2 3 3 3 2 3 2 2 3 2 2 2 5 0 w q { .                                 ",
"                                    . h 6 6 r 5 2 1 < < 3 3 7 q q q q q q q q q q q 5 J { { .                                   ",
"                                      . . ( r u e e q q e y u f u h u h s s s s s u k [ . .                                     ",
"                                          . J J [ [ ! [ { { { { { { { { P ( ( P ) ) h .                                         ",
"                                            . . . . . . . . . . . . . . . . . . . . .                                           ",
"                                                                                                                                ",
"                                                                                                                                "
};

