/* XPM */
static char *d5f90136f11b42038387e09ad74115ab3AdqV0MwaQDpQIBI[] = {
/* columns rows colors chars-per-pixel */
"64 64 177 2 ",
"   c #AB4406",
".  c #AC4409",
"X  c #B74F06",
"o  c #B54E0B",
"O  c #B75007",
"+  c #BC5407",
"@  c #B7500B",
"#  c #BC540C",
"$  c #BF580C",
"%  c #B75211",
"&  c #BB5512",
"*  c #BE5A13",
"=  c #BD5B1A",
"-  c #BF6529",
";  c #C25B0E",
":  c #C45D12",
">  c #C85F14",
",  c #C35E1A",
"<  c #C66013",
"1  c #CA6315",
"2  c #C5621C",
"3  c #CD6619",
"4  c #C7681F",
"5  c #CE6A1B",
"6  c #D06719",
"7  c #D46B1C",
"8  c #D86E1F",
"9  c #D3731D",
"0  c #D8711F",
"q  c #D5781D",
"w  c #C56721",
"e  c #C96721",
"r  c #C66923",
"t  c #CC6B22",
"y  c #C16628",
"u  c #CA6D28",
"i  c #D46E22",
"p  c #DA6F20",
"a  c #CE7323",
"s  c #D47324",
"d  c #DD7222",
"f  c #D47B24",
"g  c #DD7A26",
"h  c #D47629",
"j  c #DB7629",
"k  c #D67A2A",
"l  c #DC7B2A",
"z  c #E17525",
"x  c #E47626",
"c  c #E47726",
"v  c #E47727",
"b  c #E57727",
"n  c #E37626",
"m  c #E47827",
"M  c #E57827",
"N  c #E47827",
"B  c #E27728",
"V  c #E47728",
"C  c #E07B2A",
"Z  c #E37B2B",
"A  c #E57828",
"S  c #E57928",
"D  c #E67828",
"F  c #E67928",
"G  c #E67929",
"H  c #E77929",
"J  c #E77A29",
"K  c #E67B29",
"L  c #E77B29",
"P  c #E77A2A",
"I  c #E77B2A",
"U  c #E17D28",
"Y  c #E37D28",
"T  c #E67C2A",
"R  c #E77C2A",
"E  c #E77D2A",
"W  c #E77D2B",
"Q  c #E77E2B",
"!  c #E27E2C",
"~  c #E27F2E",
"^  c #E77E2C",
"/  c #E47E2E",
"(  c #E67929",
")  c #E87A2A",
"_  c #E87B2A",
"`  c #E87B2B",
"'  c #E97B2B",
"]  c #E87C2B",
"[  c #E97C2B",
"{  c #E87D2B",
"}  c #E87E2B",
"|  c #E87D2C",
" . c #E97D2C",
".. c #EA7C2C",
"X. c #EA7D2C",
"o. c #EA7D2D",
"O. c #E87F2C",
"+. c #E97F2C",
"@. c #E97E2D",
"#. c #E87F2D",
"$. c #EA7F2D",
"%. c #EA7F2E",
"&. c #EB7F2E",
"*. c #E97C2C",
"=. c #D7812C",
"-. c #DC832B",
";. c #D78533",
":. c #DE8231",
">. c #DD8431",
",. c #DE8932",
"<. c #E0812C",
"1. c #E3872F",
"2. c #E5822D",
"3. c #E9802D",
"4. c #E8812C",
"5. c #E8822C",
"6. c #E9832D",
"7. c #EA802E",
"8. c #EA812E",
"9. c #E9822E",
"0. c #EA822E",
"q. c #E8842C",
"w. c #EB852F",
"e. c #EA872F",
"r. c #E9832D",
"t. c #E5882D",
"y. c #EA8A2F",
"u. c #E4922D",
"i. c #E9952E",
"p. c #E6982F",
"a. c #E38531",
"s. c #EA8230",
"d. c #EB8430",
"f. c #EB8530",
"g. c #EB8631",
"h. c #EA8432",
"j. c #EC8530",
"k. c #EC8431",
"l. c #EC8731",
"z. c #EC8732",
"x. c #EB8531",
"c. c #E38C32",
"v. c #ED8B33",
"b. c #EC8931",
"n. c #EC8D32",
"m. c #EC8F32",
"M. c #EC8F33",
"N. c #ED8B34",
"B. c #ED8E34",
"V. c #EE8E36",
"C. c #EC8B32",
"Z. c #EC8B39",
"A. c #E69234",
"S. c #ED9134",
"D. c #EE9036",
"F. c #ED9535",
"G. c #EE9737",
"H. c #ED9335",
"J. c #ED9A36",
"K. c #E9903A",
"L. c #EF9238",
"P. c #EF9739",
"I. c #ED953A",
"U. c #EF9B39",
"Y. c #F09438",
"T. c #F09C3B",
"R. c #EFA238",
"E. c #EFAE3A",
"W. c #F1A33D",
"Q. c #F2A93E",
"!. c #F3A441",
"~. c #F3AD44",
"^. c #F1A349",
"/. c #F6AF4B",
"(. c #F5B746",
"). c #F6B449",
"_. c #F7BD4B",
/* pixels */
"<.G { w.{ M v G G n d 7 3 < 4 z G G 0.B.G d : P P ) V G B.z.+.7 d ) G G G G G G G G +.B.+.+.+.) z ; 6 8 M z H M { M ) G M ) v : ",
"n G G R y.{ ) G ) G G d 6 < & B G G G L.V G : d B V ) G +.v p 4 d H G ) G G G G G G 0.R G G G G p > 6 8 z H H c ) H M H M G 3 t ",
"G G G G R n.e.G G ) v n 7 3 @ l G G G x.^ G > 1 p B G +.B p & 5 7 H H V G G G G G 0.+.M P G G n 7 < : 6 8 0 c H ) H H v n d 2 0 ",
"G G G G M R S.S.{ { v v 8 3 ; t G G G P s.) > > 1 7 d d * t l 3 < 7 v ) G G G G R x.G M P ) V d 6 1 ; 7 6 6 8 z z 0 8 8 7 : t v ",
"G G v G G G q.F.0.H V V d 1 1 # h.G G G z.) 5 : 1 ; # r s n n V d 1 7 C G ) G ) 0.G M G M H z 6 < < < # 6 1 1 0 0 7 3 3 1 & 9.G ",
"G G G G G w.S.G.I.+.+.) z 1 1 O ~ P G G &.) 2 ; @ e d d G G G G G d 2 i n V { ) ) M M G H z 7 1 1 3 ; O 1 3 1 6 3 1 1 < # s B G ",
"G G 0.N.n.z.R ) G v +.+.P 7 < : j j ~ ! P Z.t y :.j ) M G G G G G +.d : k U R ) G G M H z 7 > < ; ; ; 6 ; ; ; 3 1 < < 1 * l G G ",
"+.z.R n v v M ) V G G G B 7 > # # % % & = % @ @ i P &.) G G ) G V 0.G n ; =.U G ) M H z 7 ; ; : 3 1 3 < 1 1 ; ; ; ; 1 # l M G G ",
"+.v G v v G ) G G V 8 > # ; < 1 1 3 < 1 3 @ 7 1 @ 5 n &.k.0.n +.{ C.) ) n # t d C G d 7 ; ; 6 7 d 8 7 7 6 3 1 7 1 < + # a.R +.+.",
") G v G G ) G j 6 ; : 1 7 8 7 7 3 1 1 < 1 + 8 : 6 ; ; p G +.{ n.D.n.&.V ) d 1 > s 7 : ; < 7 8 0 G ) M v z z 8 8 8 0 8 r A.t.G G ",
") ) V G M d 3 # > p d P v z 0 8 7 1 1 1 1 o d 8 z z 3 ; 3 v G ) Y.w.z ) v 7 1 ; @ # > 7 8 d n M M G v v M M ) M H ) M 3 # 7 G G ",
"p n z 8 1 + : d z V P ) v ..l.0.d 3 1 1 1 + C G V ) ) d : : n ) G N.v ) 8 1 1 @ 8 6 8 z M v v { G +.n v v ) G ) H M M 5 # ; : i ",
": # # @ < >.x.R G G G M v n.n.) G 7 1 1 1 @ ^ G ) R 9.T.g 3 # d G +.H z 6 1 $ 4 6 d V V ) ) G M ) C.w.{ ) ) H M G v g & 3 6 1 1 ",
"z d a l C.4.0.0.R C.n.S.S.q.4.{ G d 7 1 < @ h.^ N.D.D.e.!.C.i ; 3 d 8 < ; ; 1 : d G V H G G L w.n.n.e.e.y.C.{ v B >.>.; 7 7 M H ",
"G n 3 3 B G G G G G R q.F.G.4.e.x.w.G d 3 + I.D.q.4.t.G.x.{ B 1 # ; : < 3 6 7 & v V ) +.0.y.G.S.q.R G G { { c.U.;.@ & 6 d M ) H ",
"G n R 1 8 G G G G G G { y.J.W.e.9.0.+.n d & K.G G { n.B.G n 7 : > 7 d G z M 7 @ B.z.C.B.B.n.D.S.n.n.4.4.4.A.,.< ; @ s z M G ) ) ",
"M x.R 0 < 0 ) H ) G G 4.w.R { G G G v 8 3 @ Z.) P x.C.+.z 8 7 @ j v v ) ) &.8 @ C ) G ) v ) G ) G M C.y.J.a + 1 1 # n G M G v M ",
"C.R G M 3 f M H M H G C.G G G ) G M 8 6 < + s.G P N.G +.p 6 @ l 0.0.) ) C.) M # 8 v M ) G ) V G M n 7 5 : 8 8 < ; : M ) G G v C.",
"R R R R -.@ t 8 v M w.R G G G M M 0 1 1 1 o k n h.) V V 8 & e 5 ) 4.w.n.S.) ) > < 8 7 7 p n C V 6 ; < 0 v D d < # s v ) G R C.e.",
"R R 4.t.-.< = < 3 j R G ) G G B 8 < : < & * 2 w i z z 7 % i 3 3 > M C.y.T.n.) 6 < < < 3 7 7 7 : f A.T.{ v v z 1 ; G ) ) R e.e.4.",
"R 4.t.u.f 1 2 7 7 3 5 3 v z d 8 < 1 < @ a l z n 6 # & % j d G n 8 > 3 ^ D.~.B.7 ; 1 < 6 : % t l U w.G.{ H M v < 3 G { { C.y.4.R ",
"4.q.y.u.3 3 2 R G n 0 h < : < > 1 # , >.0.G G V V d 6 ; t V G G B j > < d R ).l + < : + t l d G M R n.w.M ) M ; 8 G M n.n.4.R 4.",
"q.y.i.9 n 3 w B G G ) V A.7 # : % t d G &.G ) G V ) d 7 2 z G G ) &.0 1 ; d 9.^.# o & l d G G G G R A.G.{ G d ; n G M n.q.4.4.q.",
"A.e.q i.G 7 , V G G G G x.G d & j d G G v { ) G ) V H d # l G G G { { v 3 ; 3 ! 5 h ! G G G ) +.w.C.y.n.C.M d ; M G { G.q.q.q.S.",
") d q (.n.7 2 G G G G G 0.+.G > t v G G G G ^ s.G V V V 6 t H G G G C.G n 7 ; 1 ; 1.G &.&.+.+.) M ) M H { 0.< 7 v G w.J.S.A.y.L ",
") 1 i.(.n.6 2 G G G G G G z.G z 2 z G G G G P P +.P G G p e B G G G { D.) { 6 ; # a.s.n V V M G ) M ) H z 7 ; v n M W.G.w.R { M ",
"U 4 E._.G.1 2 G G G G G G C.) M 2 d G G G G G P +.x.+.+.&.: 1.x.0.4.4.n.) G 7 1 & l j n ) ) ) ) ) v z 8 6 ; 3 M v I.F.G M G M ) ",
"7 f R.R.).3 2 G G ) v G G D.+.G : d G G G G G V V z.%.) V 6 5 G ) 0.S.D.G G 7 ; ; @ # 1 6 7 8 d 8 7 6 1 1 ; 7 M 4.W.R R ) G G M ",
"; t.R z 4.-.= ) G G M G y.Y.0.v 7 2 V H H H P P +.) ) G G d # G H H ..S.G p : : 1 1 7 < 3 < : : + @ 1 1 : 1 8 R T.H H ) ) G G M ",
"3 0 n G n n % Z.G G 0.C.0.{ { ) i , p H H H P P ) G G ) n 7 @ d v H H 8.<.> ; 3 7 d 8 z ) G V n Z 7 # @ . 7 B I.G v M M M G v 7 ",
"3 6 7 7 3 7 % K.0.w.0.G ) G M ) 7 % j H H P %.H G G ) G d 3 # 6 0 v M 6 # > 3 0 M G M ) M ) G M B w.!.K.;.: +.0.) G H d 8 8 8 < ",
"3 1 ; # o @ . A.C.G G ) G n z d 7 ; i V P B P H G ) d 6 1 1 < : 7 6 1 ; 6 v v ) G G G G ) G ^ C.n.w.4.C.I.: +.G M d 8 8 7 6 < 3 ",
"r r e i l l l a 8 V G G n 0 7 1 3 3 2 7 ) +.M G H H 8 3 1 1 1 # 6 ; 3 d &.) ) ) H H L ) w.n.y.q.q.n.n.e.4.f 7 8 7 7 6 1 < < ; 2 ",
"7 N.P V G M 4.A.: d G p 3 3 1 1 3 ; & , e p C G z 8 6 1 1 1 1 : @ 6 6 d ) G +.Y.S.S.n.w.e.q.q.S.G.w.M M G l # 7 1 1 < ; ; ; : 1 ",
"> s C.) R 0.U.I.7 : 1 1 1 < 1 3 # : 1 1 : # o @ : ; : # # ; : ; 5 > 1 p ) V G n y.J.y.e.y.F.w.w.R G M G G 8 < # # ; ; 1 3 6 d 1 ",
"3 # d I.i.W.U.G 7 # 1 : : ; : o @ p 1 1 3 1 1 7 7 6 i 6 6 3 , ; 6 1 1 7 v V V ) 4.F.A.U.G.q.4.G G ) G R B 7 : < < 6 7 0 n v v v ",
"0.<.< d U.T.G d o f 8 n 8 1 1 ; & i 3 3 6 8 8 p n ) B 8 1 < 1 < ; 1 < 6 d M ) G G S.W.R v v ) G G M d 0 8 1 : 7 8 z M H G M G { ",
"4.H s 4 i ^ d & >.F.B G n 3 1 : > p d n d z v ) G V x z 8 < < 1 ; 1 1 < 7 v v G ) D.M n v ) G M M 7 < < < ; 8 M v { v { ) w.D.D.",
"G G B g 2 : = s d C.z.v G d 3 : > v G G ) ) G V V ) V ) ) z 7 3 1 > 1 1 3 d ) v { z.M M ) G n j 3 < 1 1 1 X 9.R { 4.S.G.W.G.q.4.",
"R R M R c.y i v G R B.R G V 8 1 > v G G G G ) G 0.C.) ) ..{ z 6 6 + < 3 1 d G ) +.) G G v d 8 < < < 1 1 1 ; /.!.~.).(.Q.i.y.q.R ",
"e.w.x.c.:   <.G G G e.Y.M G B > i P ` %.s.s.x.s.y.D.{ G G G 0 6 1 : > = @ : > 3 i d j p 7 3 : < < 3 1 3 < i w.L M M S.F.G.S.e.C.",
"d d 1 @ : @ l ) G G 4.U.n.C.%.> :.%.P H P P G G M C.G M ) G 8 1 ; 4 i V h.s./ C j i e e w , $ @ # # : & + < L H M B M H { L G ) ",
"$ # < < < < u d G R C.W.w.0.{ # h.H H H G G G G G 0.{ ) G G 8 3 @ j V G G G G G H H H H s.s.h.h.C 7 > > * 1 6 6 0 z z M ) v 7 ; ",
"j ) ) d 7 1 # a.C.G.B.{ G G n # ~ H B P G G G G G 0.G G G v 3 ; , p G G G G G G H H H H P P P H G +.i 1 5 > ; < < 3 6 7 > & 1 7 ",
") ) M ) { { 7 < 9.G V v +.) 8 = n G G G G G G G G 0.M G G v 3 : e z G G G G G G H H H H ` P H P G G 8 1 1 < ; ; < 1 o 2 k C v ) ",
"M y.4.y.w.) d # t z G v ) j 1 , n G G ) G G G G G 0.v G G z 7 # s V G G G G G G V H H H ` H ) z n G p 1 < ; 1 1 & r k g G +.{ G ",
"e.G.Q.F.{ ) j 6 @ d d p 7 7 1 * +.G H M G G G G M 0.z d d d 7 @ j H H ) G G G G H H H B ` H ` B C G 8 1 1 < < < 1 & l B G G G 0.",
"4.e.J.W.4.v ) 7 : 1 1 1 1 1 3 2 d G H v j p 8 7 7 7 1 3 < ; ; o j H H V V ) G G H B H V %.P P B G n 7 1 ; < 3 < 1 3 & -.0.G G G ",
"y.G.U.W.G.v G d 3 ; ; ; + + # u s 5 3 5 7 7 0 d R z M G 8 6 > ; i G G ) V G G ) G G G G +.G ) M M d 7 < ; 1 1 3 6 8 8 # f w.M { ",
"w.R R R v 0.&.G 3 ; < < 1 6 3 @ 1 d R G C.R G G R 0.G G H d 6 ; 2 n G G ) G G V G G G G +.) G G M z 7 ; < 1 7 8 8 v M z ; f e.C.",
"G ) n G M n 3 $ ; 7 6 8 d d n 6 1 V G G w.n.G G G C.G G H z 7 < & h.&.) ) G H H G G G +.C.v M ) ) z 1 ; : 7 8 d v H M G j ; 5 d ",
"8 v v d 7 # : 7 v z z H ) M G z > d G G G e.e.R G e.{ G v v 8 3 o Z V +.) ) +.) ) +.+.G +.+.v ) H d ; 6 8 8 v G M H ) M M B 7 : ",
": ; 1 < @ 5 d n v v ..H ) { ) R h > B G G G n.e.{ w.G.0.v M d 6 : 1 P P ) V ) ) ) P ) G V z.z.H M 6 < z n ) G G G G G G H M ) 1.",
"l r # & c.Z.C.0.n.G.G.F.e.n.n.C.a.+ 7 G G G G n.G.J.D.n.&.+.v 7 1 # +.G V V v v V ) G P G v v ..v ; 8 G G M G G M G G ) M ) { M ",
"M 8 r d U C.U.~.W.F.A.y.e.4.{ G B * 1 8 M G ) M W.e.{ v v d 7 1 1 @ i B ) ) H H V ) P G G ) G ) 8 < M ) ) M ) M G G ) G { ) G G ",
"{ n 4 d G G G +.S.J.J.U.G.D.w.G j 2 < 1 d M G G n.{ G n 8 6 ; ; O = h : # 1 8 d d d d d d d z p ; 8 M M M v G G G { ) ) G G G G ",
"G G u 3 0 v G G L 8.4.L L L L 4.n k # : 1 d v G ) ) 8 6 ; : 1 8 d h 0 4.j 3 : o : 1 3 1 3 3 3 : : +.G G G ) G R { ) G G G G G G ",
"G G i : 1 3 d M H L H L { { { M g & ; ; ; 5 8 d C ; ; ; 3 d d { 8 f M R { ) B B 7 , & + : > 1 * C G G G G G { { G G G G G G G G ",
"G G e 1 1 1 < 8 z z z M G G G 8 ; ; 3 3 ; & 3 : # < 7 d n v ) ) 0 d B G ) ) G G G n d d 1 : o h G +.{ w.C.w.R G G G G G G G G G ",
"G d > & # @ o : < 6 6 6 8 d : ; 8 0 7 7 1 < & 3 6 z n v ) ) G w.d 8 G G G G +.) ) ) G G n 7 > 1 v ) G M { 0.w.G G G G G ) { ) +.",
"C 7 > n G j 8 1 ; ; ; ; # # 3 8 G ) M G 8 1 , z D H ) ) ) w.n.{ 3 d G G G G ) ) M ) ) ) ) v 8 + z ) G G G G M +.0.0.+.+.G G G M ",
"8 < z v G M z 7 < 1 < < < o -.G ) H ) { 8 : e V H H M w.A.e.) v 1 V G G G G G +.) v v G v v v < ; ) G G G G G G { n v M G ) G v ",
"; s G v G M H v 8 6 < < < $ k D.l.y.m.j.x ; i +.w.n.S.S.R R M d 1 ) G G G G G G { { M ) H v M z ; 8 G ) G G ) G +.G G G G G G G ",
"1 B.0.G ) M M v v 8 3 1 < ; t 4.L w.T.8...1 2 +.C.G.D.n.4.4.0.d 7 G G V P G G G G { 0.) ) v v ) 6 < d n ) ) G G ) ) G G G G G 7 "
};
