/* XPM */
static char *add51229ef54451faeb12c901cc0c54acl8DFQB86JpsfVMH[] = {
/* columns rows colors chars-per-pixel */
"64 64 105 2 ",
"   c #03040B",
".  c #040916",
"X  c #060D1B",
"o  c #080E1D",
"O  c #17191C",
"+  c #080F20",
"@  c #0B1323",
"#  c #0D162C",
"$  c #0E182D",
"%  c #1B1D22",
"&  c #121A2E",
"*  c #131C33",
"=  c #131F38",
"-  c #1F2126",
";  c #1F2228",
":  c #192236",
">  c #16213B",
",  c #1A243C",
"<  c #1F283E",
"1  c #202227",
"2  c #22252A",
"3  c #26292D",
"4  c #272A30",
"5  c #2A2D34",
"6  c #222B3F",
"7  c #2A2E38",
"8  c #2E3037",
"9  c #2F3239",
"0  c #32353C",
"q  c #34383F",
"w  c #172440",
"e  c #192643",
"r  c #1D2945",
"t  c #1C2A4A",
"y  c #222C45",
"u  c #212E4B",
"i  c #283146",
"p  c #25314A",
"a  c #2A354D",
"s  c #333740",
"d  c #363A41",
"f  c #3A3E45",
"g  c #303A4E",
"h  c #3A3F48",
"j  c #202F51",
"k  c #233151",
"l  c #293653",
"z  c #2C3954",
"x  c #2E3B58",
"c  c #323D55",
"v  c #313D59",
"b  c #3E424A",
"n  c #3F444C",
"m  c #3F444D",
"M  c #3F444E",
"N  c #3F454E",
"B  c #3F4550",
"V  c #34415D",
"C  c #39455B",
"Z  c #3A4762",
"A  c #40454D",
"S  c #41464E",
"D  c #43474F",
"F  c #414650",
"G  c #434753",
"H  c #444850",
"J  c #444851",
"K  c #454952",
"L  c #464B53",
"P  c #434854",
"I  c #454955",
"U  c #454A56",
"Y  c #464A56",
"T  c #474C55",
"R  c #474C56",
"E  c #484D56",
"W  c #494E57",
"Q  c #494E58",
"!  c #494E59",
"~  c #4A4F59",
"^  c #4A4F5A",
"/  c #4B505A",
"(  c #4C515B",
")  c #4A515C",
"_  c #4D525C",
"`  c #4D535D",
"'  c #4E535D",
"]  c #4D535F",
"[  c #4F555F",
"{  c #4D5460",
"}  c #4F5560",
"|  c #515660",
" . c #525761",
".. c #515662",
"X. c #545963",
"o. c #545964",
"O. c #545965",
"+. c #555A64",
"@. c #565B66",
"#. c #565D68",
"$. c #585E69",
"%. c #595F6A",
"&. c #5B626D",
"*. c #5B626E",
"=. c #5E6571",
/* pixels */
"p 0 0 d f f b f f f b b b b b b A b A A b A b f d S f b S h c z y z h h ~ h G h b h b b S b S N S n b b A b f b b A A S S S u e ",
"7 8 8 ' | ` ' / ' ~ S S T L S b b A A b b b K K E E K K D Y ~ z y S =.+.=.+.S n S S S n S n I L S b f f b ' S H ' A S S b b 0 = ",
"8 ( | ' | ` W | / I | ` ~ ` / ` ' [ ' W L _ ~ ~ H E ~ _ ~ Y Y l f %.~ | } ~ ~ ~ +.~ W W I ' ~ ~ W ~ ' S ' ' W ~ ' ' n b A b 0 r ",
"5 P I ~ / ~ I G W ~ / ( [ N ( T Y _ [ _ _ W W _ W L _ Y ~ G A r d #.| ~ +.R ~ Y W W W I ~ S G S ' T ( ' ' ( ~ D ( W L S G h s r ",
"0 ( | ' } ( W | | ` | / I ( W L W K _ ' _ W _ L W _ W _ _ H H t b ~ X.W ' / } } ' ~ ' ~ Y ' ~ W ~ ~ H W ' I W W Y ' L G b f b r ",
"5 ( ' | ' W L H / / T / L L T S ~ L H ' _ Y _ ~ ~ _ ~ [ Y S H y h ' +.~ } I ~ ~ W ( ( ' ~ ( ' ( ~ ~ W ~ Y L H L ~ ~ [ ~ G n h r ",
"8 ' S L T L S L L S D D D D S T E E L L W W W _ E W K Y _ f L j b ` ' L | I I / ' S S ` H [ D S G W S H A L S S S b n S f ~ L r ",
"5 ( S S / L S S H S S L b S b L L D Y W L L Y H E E D b L f A y S ~ ` W | L / D S H ' S H S S H S S L A S D b A S b S N f b n = ",
"4 S S S S S 0 S S h n S S f b b A H Y D W D D f L D f b f b f u b W H ' S S W A H S S S S H b S f S f D S N h b f b A f b b b & ",
"3 S S S S b b d h d f S S n D f D f L D f f b S f b d q d h f u h I S L S b b S S n S S Y b S b f q S b S h f S f b W S b b b * ",
"4 f S S b S b b q h f q S S S S f f A f q q f A b b f 8 d f f y b I L N W d N b b L b f S b h d q q q q q b d h f f b d d h d & ",
"3 q S 0 0 S q f f f N b f n b b f d q q q d f S S f d 8 5 d 8 6 f b b n D f b S f f b f h h f f S q q d 5 q f q d f f f d 0 @ & ",
"3 0 q q b h d h b b b d S b b f 0 5 5 q d d h h f q 0 0 0 3 5 , 0 d f S S b f f f q 5 f f f f d 0 q 4 8 q 7 q q 9 0 d b 8 d d & ",
"4 0 0 S 0 0 0 f d d 0 d 0 S q q q f q 5 5 h d d h b f b b q q u L S A L f A f d f d s 9 0 0 5 5 q 8 3 1 7 1 3 0 0 0 d f 9 9 5 = ",
"u = 0 0 d 9 4 5 5 5 0 5 8 0 q & q f q q q d d 0 5 f f 9 b 5 6 * < q f b d d h d b q 0 0 5 0 0 s 5 5 0 0 3 4 - 0 h b f S f d d = ",
"w w w , w = u t u u y r r w y * = = & = = = * y y y : = = = @ & & 6 z l x z r , > , , l l l j j u j u l j l l a z p p y @ o : : ",
"f h b h h f . X = G W S D I G S L S ~ L S S S h b S b H ~ Y ' ~ S S S H b b b 6 h f I | f f S h ' / } | S S h b S S H ' | [ L D ",
"` | } h b f S . = f f ~ ~ +.^ ( ' ~ ~ W ' W L W ~ ~ ' ~ | ~ ~ | ~ [ Y S ' S h : f ~ G ~ W ' h ` ' | / ' | | S ( ~ W ~ | o.G D L ",
"| } ' ' ' b b L = b ~ Y } | ~ ^ ~ } W ~ ' | | |  .%.o.Q | ~ ( [ | ' ' %.| I S y h | ` &.o.| S | | | / | [ W ( ( ' ' ~  .+.| +.| ",
"/ | ` / ' | h b = f Y o.| I ~ ^ X.| ~ ~ L H | ~ | ^ Q ~ Y ~ Y | ` ~ ~ ~ +.W S * d } ~ X.| T / I ~ L | / ' } ~ ~ ~ ~ ~ ~ I I ~ ~ ",
"' D W D / ' f N j b ( W _ h [ ~ ( Y Y S L ~ ~ ~ ' H H S D D S S S S ' ~ ' S S * h } ~ | } ` %.' ~ ' ~ L T ~ ' ( | ~ T ( | ~ ' ~ ",
"D D L L L ' ~ f j ' ' ~ L A ' _ W S W A L n G S L H S b S S S L L S S G S S S * f ~ ^ | | ~ | ' | ( / ` / I ' ~ ' W W ~ ~ ~ ~ ' ",
"D L S D D L ~ N e ' _ Y Y L Y ~ ( D A A S A S S L W b b D b S S S H S S H L N & d ~ ^ } ' ` ~ A S H S D L N ~ ~ / W ~ ~ ~ W ' L ",
"S A S N S T W b , ~ _ ( L W D L D A A A S A A A b b b b S b S S S H W L L T S * S R I S S H S b b G N b D S T ~ I L L ~ I S S S ",
"D S A A A D S b y f I ~ H D A Y D S f f f b q f f f b b b b f f b b A H S A f & q Y S b h D S S b b S S S b b L L S T I S D f S ",
"S q b b b A S q r d f L L A b A A f f f S h S f b 0 b f d f d f f b q b f b f & b A b b b h b f S S L S b S S S S S I b b b q S ",
"A b b b b b q h w 0 f d f f f A b S h f 0 q d q f b f N b b f q q b b b b b q : b b b b b f f b S f b N S f S N S S d S b b q 0 ",
"5 f f b S S q f * d 9 0 f d 0 s 0 f q d q 0 q d q q d 0 0 q 0 q 0 0 q f q q q = q q 0 q q 0 q 0 q b S h f b f b f f d 0 0 0 0 q ",
"5 f d f q h q q . f 5 q q 5 3 5 0 q q q 0 8 q 0 0 0 q f f b b b f q 0 h q d b & q q h f f q 0 q 0 q 0 5 b f b S N H 0 b q d 7 5 ",
"3 q s d d d 0 5     5 3 3 5 - q 8 8 5 h q 0 q q 0 5 9 d d f h h q d f h q 5 b & b h h A b f f q 0 5 1 0 q 0 5 0 d d 0 1 5 2 4 3 ",
"8 h S S q 0 0 p *     1 % % 0 5 4 5 8 d q 0 q q f q d f d d f s b H W W S q * & # S L S S b S f f 4 2 9 0 0 q q s d d s 7 4 5 5 ",
"u > > , = 6 : = 6 * y y y y i c y y : > > e , r 6 = y = = = y = * * & & * * * & & & & > = : & 6 l c c v v c C c z a y p l Z v v ",
"S h h h S G S S b n S f h h A S S S b A S ~ b y y h h B h S S S W I L W D W W W W S W D D L L L A f h A S 0 ~ g i S h h S n h h ",
"' ' ~ ( X.+.%.+.&.' ~ ' L S W W W A b L L I b n = h A n H D D W ~ ~ L S D Y ~ ' ' ( ( ' W ~ W Y Y W ( D ~ S L C f h ^ ^ G | | ` ",
"` ' ( ~ W [ ` ' W W ' ( W ' ~ ~ W L W S W I b W y L ~ I ~ W ~ ~ ^ ~ I W S | [ ~ ' ~ _ o.%.W ' ~ W ( | ' ~ | f g f ~ d | ^ | +.#.",
"| ' | ( W ~ | ' W L L Y W ~ ~ ( W S ( S S Y ~ b y H D A A W ( [ | ~ ' ( | W ' ~ W ~ ~ [ ~  .' ~ W W H L ( | d c d d ~ ~ ' | +.+.",
"| ' ' Y ' I ' ~ ` W T ' W W ~ W L b G n I ~ L S u G ~ G S D I ~ I ~ ( o.~ W ' ( ( W  .( W +.Y W S ~ I Y G I h a d ~ / T I { Y Y ",
"| W ( | | | ` W | ' W I W W W W W L L B W W L L = h W I W W / D ( ` | W } ' ( ' [ ' W W W W ( L I h f f d d h a d ' | / %.~ ~ ~ ",
"L [ ( ( ' ~ W ' W W W W W W W ( ~ T ~ G ~ ~ ~ I @ S ~ W W D W Y ~ ( ~ ( | ~ S S ( D A A D D W ( ~ L D S S d d y d ~ ` X.*.` ~ ' ",
"W W L ( ~ ~ ' ~ W S W W W ~ L L T L ~ I W ~ W @ o G ~ W W I W S S L S W ( b A S A A A S D A D f S ' ' S I b h y d ( / } / ` I Y ",
"b W W L Y W ( L L W D H L Y W W L L ~ W W W ~ h @ G ~ W S L A b H S W S Y D S b f b b S D b b b N S S h N b h p d } ( ] N N b S ",
"S b L L L W D L D ~ D W W W D W W L T L S L L b # S S W ~ S b b S S f S D S b f b f f b f b S b f ~ f S n S N c s b R / h R h L ",
"S h N b L b b D S S S N D D W D S W W W H ( W b # L b S S S f S b b S b b b f S f f b b f f f b b b f L b S h c s d R h b f f q ",
"b f S f S S S f f b f S D S A W S L S S L ~ W d # 0 f h S f f h N n h h f S D f f b b q d q b b S f S b b 0 h c 0 } ( h f 0 b b ",
"f b b q f h L S f f S f f S S D S W H S b b L S # S b b A S I S f S S b f f S b q f f 0 q f f f f N S n h f 8 a p T 0 q 0 0 q d ",
"q q q d 0 q q q q q 0 q 0 q q S b h b S b d d 0 # h S n f S h h 0 b q q f f S b b b f q 8 q 8 q 0 0 S f S f 8 6 0 H 8 0 8 0 0 q ",
"0 0 d 5 0 d 0 0 2 4 0 q 0 q q f S f f q h h q f # q q f b A h q q f q q 0 0 q q 0 f f 0 8 8 0 0 8 0 f h b 5 * < 0 8 9 7 % 5 8 0 ",
"3 3 0 4 3 4 3 f f q f 3 1 5 0 0 q q 0 0 q d 0 @ & # - 3 3 0 0 0 0 0 q 0 2 3 2 3 5 5 3 3 4 0 3 0 0 8 0 8 3 1 : < 3 q 0 1 - 3 3 q ",
"y u t x z = w = = = = * * * & # & * , = > = = = e r t e = = * * = > = > e u u y , & = , = > * y * : * z v p p i y i a Z z V v Z ",
"f S f f b h 7 f L | | } ~ ~ ~ L * A 7 S S Y A h A h h A S S h S S N S G S h f b b A L A D b S : & & 5 5 q A b d f d d h N N h ~ ",
"I ~ ' I ~ ~ b ' ~ ~ ^ } [ ~ S L , f 0 b ~ S ~ ~ | ' ' ~ ~ ~ I A ~ W ^ | ~ ~ ~ ' ' A A f A A b : # 0 0 b S A h S ' ' } ' ~ ~ N ` ",
"/ R ~ G P f G S ' | ^ ^ +.~ I A * q D W W H ~ L ~ | ^ ~ ' ~ W W ( ` ~ I ~ I ( ( ' | ~ ( D f S * # q b ~ ' I G L T / ~ G ~ L S [ ",
"' | ' ` T } } ~ ' ~ ( [ | ' ~ ~ * S D Y D Y W ' ~ ' A ~ | ' W L ~ ~ T ^ W ( S ( S ' ^ | ' ( L & y d W ' ` ~ +.' W ~ | ~ ~ ~ T +.",
"| | ' ~ | T +.' ~ ( ' W ' ' I S * S L S W W H Y ~ S ~ | ' ~ W ~ R ~ ~ ~ ~ S A S H ~ Y ' ' ( S = = N ~ ' ' ' } Y ~ ' ~ L G ( T | ",
"} / ' ~ ` W X.' | W | ' ( W ~ = = L S S W ` H ~ L H H H L A A h S S G S S W D Y S W L W W ( f A = N ~ } ~ ~ ~ ~ ~ L S L S S G | ",
"} ` } ~ W L ~ H W W W ' ~ ~ ~ W * D S ' S S W ~ ~ S ~ G n S b A n S D S S L b S S D Y H W ( ' f = h ~ ~ ~ G L L W W L S D D T / ",
"( b W W S f | I n ~ W W W W W S * b S A A S S H S D H D S S b L D S N n b b W W ~ S A S f ~ ( d = f W L L L D S n h b S S S S S ",
"S S n n W S G S h S L H L ~ W n & f b b A H S S A S D b S S A S S S S N S b b n S S s h h W W q * d d f q S D S S h S S f b S f ",
"f f S f b N h h G D D S D H S f & d h h f b A f q f b A f Y f h S S f h q N S f h d f f f Y W 5 * 0 q S D f h q q q q q d 0 n b ",
"b 0 f d f f d h S D D S S S s 0 y 7 b h A f f d d b b A f f d d h S S d f f f f d d d d q D q 5 & 0 q q q q q s b q q q q 0 f f ",
"0 d f q ~ d d d d h S h 0 s q q & 2 7 d f d f d 0 0 q q f 7 d q 0 f b d q q f q 0 d d h s d 0 0 & 7 1 0 0 8 0 0 h 0 0 5 0 0 0 5 ",
"3 5 7 0 d 7 7 0 d d 5 5 d 3 0 5 # 5 4 7 7 s f s f 8 8 0 5 0 5 5 5 0 s 0 q f b q h f d d h 0 0 o # % 0 7 8 4 8 5 7 4 3 3 5 0 5 5 ",
"5 4 1 3 1 3 2 2 O O % 2 4 3 1 # # # q 7 5 5 0 7 7 8 q 8 0 9 0 0 9 0 5 5 0 9 0 3 d h d L D 5 3 X + 8 3 7 4 3 3 1 1 3 3 3 3 4 5 5 ",
"r t r y t t e e e e w w = e e e e w e e r r r r r e e , e r = * r = p a y k p p r w w = = = e t u r = * = e r e = > = > e e > e "
};
