/* XPM */
static char *_19b222da8b94682a3c4cb69188067a0zWJ1BVj1wD8SrDSV[] = {
/* columns rows colors chars-per-pixel */
"64 64 176 2 ",
"   c #3D2E1E",
".  c #3E2F1F",
"X  c #3E301C",
"o  c #3E301E",
"O  c #3E301F",
"+  c #3F3120",
"@  c #42301D",
"#  c #40321E",
"$  c #40331F",
"%  c #46331E",
"&  c #43341E",
"*  c #423221",
"=  c #423321",
"-  c #443321",
";  c #433422",
":  c #473721",
">  c #443422",
",  c #473623",
"<  c #473724",
"1  c #493824",
"2  c #493927",
"3  c #4D3B26",
"4  c #513D28",
"5  c #523E29",
"6  c #564227",
"7  c #664A2B",
"8  c #674C2B",
"9  c #674B2D",
"0  c #644D2E",
"q  c #664F2E",
"w  c #684D2E",
"e  c #6D512E",
"r  c #70512E",
"t  c #70522F",
"y  c #644D31",
"u  c #644E32",
"i  c #664F33",
"p  c #675030",
"a  c #685030",
"s  c #6B5232",
"d  c #6B5332",
"f  c #6F5132",
"g  c #6C5432",
"h  c #6D5532",
"j  c #685134",
"k  c #6B5336",
"l  c #6E5634",
"z  c #705232",
"x  c #735431",
"c  c #755631",
"v  c #745532",
"b  c #765732",
"n  c #775733",
"m  c #745434",
"M  c #745534",
"N  c #705835",
"B  c #725835",
"V  c #725935",
"C  c #735937",
"Z  c #735A36",
"A  c #755A37",
"S  c #785833",
"D  c #7A5A34",
"F  c #795836",
"G  c #795A37",
"H  c #7C5B34",
"J  c #7F5E36",
"K  c #705738",
"L  c #765C38",
"P  c #785C38",
"I  c #785E38",
"U  c #7A5F3B",
"Y  c #7B5F3B",
"T  c #7D5C38",
"R  c #7B6039",
"E  c #7B603B",
"W  c #7C623B",
"Q  c #7D623B",
"!  c #7E623B",
"~  c #7E633C",
"^  c #7F633C",
"/  c #4A4848",
"(  c #52504E",
")  c #545252",
"_  c #585654",
"`  c #5A5858",
"'  c #5A5A58",
"]  c #5C5A58",
"[  c #5E5C5A",
"{  c #605E5C",
"}  c #605E5E",
"|  c #62605E",
" . c #626060",
".. c #666462",
"X. c #686664",
"o. c #6A6866",
"O. c #6E6C6A",
"+. c #706E6C",
"@. c #72706E",
"#. c #747270",
"$. c #787674",
"%. c #825F3C",
"&. c #826037",
"*. c #856238",
"=. c #866339",
"-. c #87643A",
";. c #83603C",
":. c #84613C",
">. c #86623D",
",. c #86633D",
"<. c #80643C",
"1. c #82663D",
"2. c #83663F",
"3. c #83673F",
"4. c #88653A",
"5. c #88643B",
"6. c #8A663A",
"7. c #8B663C",
"8. c #85683F",
"9. c #8B683D",
"0. c #8F693C",
"q. c #8E683D",
"w. c #8F693F",
"e. c #8E6A3E",
"r. c #8F6B3F",
"t. c #906B3F",
"y. c #916B3F",
"u. c #936C3F",
"i. c #936D3F",
"p. c #8B6741",
"a. c #866840",
"s. c #866940",
"d. c #876940",
"f. c #896B41",
"g. c #8D6841",
"h. c #8F6941",
"j. c #8E6943",
"k. c #8F6943",
"l. c #8F6B43",
"z. c #906B43",
"x. c #936D40",
"c. c #946D41",
"v. c #976F40",
"b. c #926C44",
"n. c #936C44",
"m. c #936D44",
"M. c #946D44",
"N. c #946D45",
"B. c #977043",
"V. c #977046",
"C. c #997141",
"Z. c #9A7143",
"A. c #9A7343",
"S. c #9C7443",
"D. c #9B7344",
"F. c #987046",
"G. c #987146",
"H. c #9F7645",
"J. c #9F7746",
"K. c #9A7148",
"L. c #9D7449",
"P. c #9F7549",
"I. c #A07645",
"U. c #A17745",
"Y. c #A17846",
"T. c #A27846",
"R. c #A0764A",
"E. c #A47948",
"W. c #A47A48",
"Q. c #A57A48",
"!. c #A67C48",
"~. c #A67C49",
"^. c #A87D49",
"/. c #A97D49",
"(. c #AA7E4A",
"). c #848280",
/* pixels */
"7.,.,.A C C > & 2.2.3.P.Z f.s.s.~.s.2.l.l.l.* ; ~.(.h.s.f.P.s.2.H.J.H.H.P R * ; f.R.f.R.f.R.^.^.m.m.m.k h.l.; ; R.2.Y.2.~ z.9.C ",
"7.7.,.C C C 1 ; * 2.P.f.P.f.f.P.8.2.N.c.l.l.; * (.(.f.f.P.s.s.H.s.H.H.~ Y L ; * f.R.R.f.(.(.^.f.k ^.m.j.h.z.+ + Y.U.~ ;.z.e.A A ",
"7.;.,.;.:.C ; ; a.P.a.^ f.f.~.~.R.m.c.b.l.j.< < (.(.f.f.9.P.8.J.H.D.D.L L R * ; f.f.f.f.f.^.f.f.N.m.m.m.N.b.. * W.;.Y.2.h.C b h.",
"7.,.7.7.e.C ; ; * P.a.7.f.~.~.s.s.s.j b.m.; * (.(.f.f.f.R.8.R.8.H.H.H.D.~ L * * f.f.R.R.f.P.^.f.a.m.m.V.N.z.. & H.E.2.e.h.e.C C ",
"7.7.0.C C C ; ; + a.P.f.P.f.~.~.2.j j C.c.; z.> (.(.~.f.P.P.2.J.H.J.J.p C C ~ * f.f.P.R.P.P.~.(.P.m.z.a.B.c.. R.H.2.H.h.h.! C b ",
"7.9.0.C C C ; ; ; a.a.f.P.~.f.~.E.2.j j C.* ; ~.(.(.f.P.P.P.s.Y.P.p E R j ~ * * f.f.f.P.h.(.(.~.P.m.a.N.c.G.    Y.U.2.~ h.h.C N ",
"O r.r.A 9.A * > ; a.s.P.P.W.~.~.~.2.s k G.> * * ; h.s.P.P.P.W.P.~.J.E E ^ L * h.; P.P.P.P.s.~.P.P.N.N.m.N.S.* * Q.H.2.e.2.~ N C ",
"O $ e.e.9.A * > ^ a.R.R.~.~.(.~.~.c.2.D.C.D.* & (.(.f.P.f.P.W.J.E.U.E E E R * + f.P.P.Z (.f.P.P.a.z.L.z.G.C.  * H.Q.Y.2.~ h.l b ",
"7.9.& e.e.e.; > + B.R.3.(.8.(.~.~.s.a.S.c.G.* ; (.E.f.f.P.P.Q.Q.U.^ P.~ Y B.* * h.f.P.Z R.Z p.f.a.n.N.c.N.C.*   Q.H.U.L z.z.B B ",
"7.5.B d s h.; > 3.^ C.~.Y.H.~.H.8.V.N.B.C.C.; * (.(.2.! L.b.u.!.H.c.^ C.N.C.* ; 8.H.~ P.H.H.s.j.a.p.c.i.z.C.O ; Y.D ! ,.2.e.h.B ",
"%.%.d d e.7.  O C.B.~.C.~.(.H.R m.N.I C.h.e.O   U.H.f.2.z.U.S.i.W.c.Z L C e.* * ~ W.H.H.H.H.Y.b.z.Y t.t.9.z.4 5 C.R I -.,.t.:.*.",
"&.%.d d =.:.  & C.C.8.^ U.H.H.S.U ~ D I r.e.    H.U.~ ,.z.N.G.G.c.c.C Z e.e.; * a.~ H.H.H.J.b.c.Y Y z.0.t.z.4 4 B.B.I I ,.:.*.*.",
"/ / | o.+.+.} { +.#.$.$.` ` $.$.$.$.....$.$.$.$.` ` $.$.$.$.....$.$.$.$.' ' $.$.#.$.....$.$.$.$.[ ` $.$.$.$.X.X.{ } +.+.X.X./ / ",
"/ / #.+.+.+.} ( } +.` [ ` ` ..).$.)._ $.$.$.} $.` ` ` O.$...O...$.X.$.).$.).X.$.O.$.| $.X.) $.| $.$...$.$.$.X.X.X.} +.+.+./ / / ",
"/ @./ O.+.X.} } [ ` +.+.).$.' $.O._ _ | | $.$.` ` ` $.X...$.O.$.$.$.X.$.$.X.O.X.X.O.[  .$...$.$.X.$.$.X.X.X.} $.{ { ] ` #.@./ / ",
"/ / / ] } } ( X._ ] ' ).$.$.).O.X.).O...| | ).).X.` X.X.o.).$...X.X.$.X.X.X.' X.X.X.O. .| ` $.$.$.X.$.` $.X...X.X.) ] ] [ / / / ",
"/ / / ' ' )  .) |  .' ).).).' ).).X.X...X.X.X.X.` ..X.X.X.X.` ` ` X.X.).X.` ] X.X.X.` ] | X.X.X.` X.X.X.X.X.X.( X.X.) ' ' ' ' / ",
"/ / ' ] | [ ) ) | } X.X.' ' X.X.X.X.` ' X.X.X.X.` ` X.X.X.X.` ` X.X.X.X.` ` X.X.X.X.` _ X.X.X.X.` ` X.X.X.X.X.X.) ) { [ ' ' / / ",
"6 6 e 8 r r 1 1 b b D D * & S S b S & & e e 3 3 =.=.d d R H y y %.D b m D b 3 3 X.D > J % % D r b b .   e e , < %.%.7 8 d m e e ",
"6 6 h t r d 1 1 b b b D ~ < & D b C O A O e 3 3 *.2.f.h.H.%.J e a c.U.b.b D 3 G.D D c.% % 1 1 u.z.m Y C A d 1 1 J U.%.8 t.h l.3.",
"6 6 l l C e.  O B.i.C.C.~ G.S.b D.C.& z.& e.1 < (.(.2.H.P.2.I 8.U.d z.c.b c.1 3 C.D C.N.D | t u.h.Z A A w u.  & E.%.h.z.m t.r 5.",
"%.l l h e.O   C.B.B.G.S.G.~ H.S.U.c.z.P O u.> < (.(.^ (.P.P.R.2.2.2.U.n.D V.1 < D.N.m.m.B.b.i.i.N.j.C Z S.z.b.H.U.U.h.z.:.%.:.m ",
"%.,.e.,.e.z.z.  S.S.B.~ 2.8.H.G.R.P Y C C e.c., (.(.(.(.L.! 2.8.2.H.U.a.G.C.1 , H.U.U.V.~.Y.H.b.j.C U.U.U.e.& + U.Q.U.%.t.5.B B ",
"%.%.,.t.e.e.O   S.S.2.8.2.8.Y.G.U.G.! c.c.c.; * + (.(.a.(.P.2.a.2.2.a.H.c.; * > H.Y.U.G.;.H.C.H.U.K C U.t.t.e.  Q.U.E.H.U.B ,.B ",
"%.%.%.B t.@   . H.U.E.U.~.R.B.R.c.~ Y z.b.c.u.& (.(.(.2.~.s.P.2.2.8.D.B.S.i.> > Q.U.Y.S.(.H.b.H.j.h.c.c.c.O * U.H.Q.U.^ E.U.Z e.",
"5.%.l B h.9.. . H.P.E.R.~.V.Y.B.N.a.G.u.G.C.* ; P.P.(.P.a.(.a.P.U.8.D.G.B.F.* & Y.Q.Q.:.h.2.Y.H.~.(.(.c.z.b.. + Q.H.W.U.Y.b U.j.",
"%.B B C 9.t.. . H.W.R.R.P.P.V.Y.R.H.! G.G.C.* * (.P.E.R.H.P.R.~ ~ ~ 2.c.F.Y B.> E.R.(.a.2.8.Q.Y.~.(.L c.I c.j.* @ U.U.E.0.0.Z h.",
"C %.B e.z.e.e.Y.Y.R.P.9.f.f.B.~.!.U.~ :.^ C.* * (.(.(.(.(.P.P.:.R.~ C.G.U.B.* * R.(.(.(.(.8.(.(.(.(.(.~.D * * @ H.C U.H.U.0.t.e.",
"%.%.e.t.e.1 . E.E.f.f.P.P.R.V.f.B.(.^ ^ B.S.+ * (.(.(.(.R.P.~ b.R.~ N.F.Z.C.> * E.(.(.(.s.V.(.(.s.i i c.G.& u.  E.I.B I.S.U.7.t.",
"%.%.z.B z.2 z.U.E.f.f.f.P.a.f.;.k E.D.^ ~ S.; * (.(.(.(.(.P.! Q.P.G.G.G.M.F.* * (.(.(.(.z.i N.V.i i u.b.c.G.>   U.I.I.I.U.t.0.0.",
"%.%.%.e.e.u.1 . Y.f.f.W.f.f.f.k Q.S.C.m.H.C.; ; (.(.(.(.(.R.R.! P.c.C.G.~ * C.> (.(.(.N.N.s.m.i (.j u.c.c.B.. * E.U.I.I.I.I.U.0.",
"%.%.e.%.z.7.+   E.f.Y.f.f.f.~ E.S.D.D.m.B.S.; * (.(.p.~.(.P.R.P.E.R.<.G.i.Y * * * (.(.N.N.z.P.~ ~ ^ p ~ G.z.* @ I.I.I.h.I.h.h.h.",
"B %.%.%.Z p.. * Y.Q.f.f.f.f.f.f.S.W.k G.c.G.+ ; R.f.f.(.J.P.L.h.,.R.E ^ h.j.j.+ (.(.P.m.N.R.P.~ ~ i ~ i G.C.+ > U.C.U.H.U.z.t.U.",
"B ,.%.a.K ,.. U.Y.Y.f.P.P.f.f.~.p p h.G.G.C.* L.R.P.(.(.Y.P.P.2.f.;.W.^ h.j.; ; < (.^.P.N.R.(.(.~ m.U (.B.C.; > Y.R.U.R.y H.I.I.",
"%.%.,.B C >.  U.E.W.R.P.P.P.B.P.y V.y B.C.G.* * ; P.P.P.f.R.R.U.W.^ a.h.j.h.; ; (.(.(.N.R.(.R.(.(./.(.G.B.G.> G.< G.U.H.I.y y g.",
"%.%.B a.,.>.f.Y.W.U.Q.R.P.P.R.8.W.W.G.y y C.* * R.R.P.(.f.R.~ Q.3.R ~ ^ ;.f.; * (.(.P.(.P.R.(.(.(./.(.(.C.G.> > N.G.C.U.0.I.U.y ",
"l B m B -.C   Y.W.W.H.W.2.R.P.(.V.~.B.y j y y ; R.R.R.R.2.~ R.<.~ a.a.h.j.Y * * (.P.s.P.P.P.~.P.(./.~.N.V.h.; ; N.h.G.U.B.0.y y ",
"l d %.B ! C ; * W.W.9.W.P.g.Q.E.2.b.B.V.m.y ; * R.R.R.P.R.f.f.2.;.N.C ~ ~ U * ; (.W.P.^.P.a.R.~.(.z.c.N.m.h.* < G.G.y y 0.0.y 0.",
"N d ;.-.l C ; ; U.U.P.f.P.(.Q.2.~.V.V.V.~ Y ; ; R.R.f.P.P.P.Q.f.~ m.j.R.P.Y ; * (.(.~.~.a.a.P.P.z.E.n.N.m.~ * ; G.y y y ;.%.y y ",
"b d C C %.Z ; ; E.f.f.R.P.R.R.(.m.m.m.R m.R * ; R.f.f.P.f.8.R.N.m.h.z.m.R Y * * (.(.(.~.L.P.E.W.n.a.a.z.^ L < * F.G.G.V.y y y 0.",
"h l d 2.t.t.* > > (.Y.!.(.R.(.(.s.E.y z.Y U , , R.f.P.R.f.P.~.P.P.m.m.C R R < < (.(.(.(.(.(.L.a.a.a.c.b.~ U < ; F.F.;.B.| :.8 8 ",
"C N r.x e.e.e.; !.Y.!.(.e.R.~.m.~.R y a.s.U , , R.f.f.s.s.P.P.c.a.m.2.L.b.b.< ~.< (.(.P.L.P.a.L.~ a.E G.Y E R ; > F.a.N.u.e y 8 ",
"q p N ! &.h.; ; O Y.(.~ !.d (.m.N.G.f.a.s.E , , P.f.h.P.R.P.P.E.a.c.h.C.l.b.N.h.< f.(.P.L.L.P.m.P.a.~ c.Y + ; + @ a.~ h.e.e.t.e.",
"q p N r.&.e.+ O W.Y.R (.j (.C.U.~.~.y g.U E 1 , P.P.m.P.~.G.~.E.C I b.e.9.e.+ ~ f.f.2.(.L.j.P.m.m.E g.C g.p.+ B.N.,.C L.z.M e.t.",
"&.$ & ;.&.-.4 4 R E R ~ k ~.S.~.S.V.g.g.K C > + H.H.H.C.! ;.C.E.G.Y Y t.t.& 1 h.f.P.~ C.m.N.(.m.m.C.2.e.6.R C B.O B.2.u.C C C *.",
"e w &.*.2.-.4 4 R Y ^ 2.k s S.H.S.V.7.j.C K ; ; H.J.c.N.! %.G.C.P A u.c.e.e.* * 2.~ b.B.N.V.c.b.B.C.h.p.A V + + i.u.L D t A *.<.",
"/ / o.o.+.+.[ } @.@.$.$.` _ $.$.@.$.....$.$.$.$._ ' $.$.$.$.X...$.$.$.$._ ' $.$.$.$.....$.$.$.$.) ' $.$.$.$.X.X.| | +.+.o.o./ / ",
"/ / / / ( +.} { @.+.$.$.).' $.$.$...O.X.$.$.$.$.' ` $.$.$.O.} $.$.$.$.).).$.$.$.$.$.$...` $.$.X.' ' $.$.X.$.{ { { | { @./ / / / ",
"/ / / o./ ) ) +.[ ).).` ` ` ` ` X.+.X.| $.| ] $.$.X.$.$.+.....$.$.$.).).$.$.$.).$._ _ | ..` ` ` ' X.$.X. . . .(  .} +.@.#.#./ / ",
"/ / / ` [ } ] [ ).).` ' ` ` ` X.X.X.X.X.$.| } ` $.$.$.$._ X...} ).X.X.X.).).).' ` ).| ` _ ).X.).).' ` ` $.} $. .) [ +.[ } / / / ",
"/ ' / / / / { | ) ).' X.).` ` X.O.| ` ] o.X.] X.` X.X.$.X._ ` _ ` X.X.).).).).' ).X.X._ ` X.X.X.` ` ` X.X.$.) $.) ) @.} } ` / / ",
"/ / ' ' } } ) )  . .X.X.` ` X.X.X.X.` _ X.X.X.X.` ` X.X.X.X.` ' X.X.X.X.` ` X.X.X.X.` ` X.X.X...` ` X.X.X.X.X.X.) ) } } ` [ / / ",
"$ & 8 7 & % 1 1 F F d s T H >.%.q q R b $ % 3 3 , , C t > , D b m m r m 9 w 2 1 -.=.e d O O 6.-.F F 9 0 C b & > & & m 9 O   8 8 ",
"D @ @ & 8 % , , F D C J R.R.:.8 ~.!.& &.1 > 3 3 , b x D C % % N.f A x 9 9 9 > > -.-.(.O O !.&.!.L.F 9 9 b D > ; & t.w e.e.  8 *.",
"@ A & -.5.5.& > Q.F Y.R.R.R.Q.w G.G.~ D % S.< < <.j k > & S S.f m D f.,.g.,.$ ; (.(.~.f.d O R.Q.E.P F F C.G.$   Y A z.  O C   *.",
"A d f ;.f ,.> > R.Q.R.P.U.8.G.!.G.~ ~ ~ B.S.< < 2.l k > , c.S U.P S.2.Y ,.,.> > (.f.f.f.h.P.(.8.L.z.K.F.N.C.O ; C ! B.f.e.6.b -.",
"d -.e d -.6.; ; Q.R.R.R.R.8.~.C.~.~ ~ C.V.C.< < k k k Y.P.U.H.C.~ Y ! c.B.; * (.(.(.(.R.R.(.!.(.G.N.G.N.N.G.. U 2.C.C.h.2.>.7.*.",
"d 7.2.3.e.6.3.Y.R.R.R.R.R.7.f.s.~.~ ~ ~ ~ B.< < k 8.!.!.Q.Y.b.H.2.c.u.Y p.u.8.; (.~.(.R.R.~./.(.f.8.8.c.G.. . * ! ! C.C.B.2.:.0.",
"d d h 7.6.e.O O Q.H.R.R.s.P.a.E.(.~ ~ ~ G.B.< < 8.~.8.Q.Q.Q.2.H.~ ~ ,.! f.* p.(.; (.(.R.f.8.(.~.a.} a.N.G.N.+ ~ ~ H.S.2.r.-.6.t.",
"e :.;.-.C 7.O ; Q.2.R.R.E.h.(.~.~.Y.~ ! <.C.< < 8.!.!.!.~.Q.B.b.P 2.B.M.2.p.* g.f.R.R.R.f.(.(.8.7.7.f.c.c.*   + ~ ~ ~ S.u.0.r.x ",
"7.6.=.C C t > > } ,.R.P.R.R.(.~.(.~ u.8.V.,.m.1 ~./.8.Q.E.a.^ 2.N.c.B.S.D g.p.* f.f.f.R.f.f.~.~./.7.c.B.G.C.+ + Y.S.S.u.C.c.C C ",
"=.7.3.;.2.L > > t.s.8.P.P.R.~.(.Y.Q.<.c.B.c.1 1 (./.h.8.W.E.V.2.C.S.S.G.C ~ C a.; f.R.f.P.h.(.8./.*.B.B.C.C.+ + U.Y.2.B.2.w C b ",
"7.-.-.-.t L O X 7.*.8.R.(.Q.s.(.8.~ b.~ B.C.u.> (.~.8.8.~.8.2.^ H.H.U.C.G.Y > * f.P.f.f.P.~.~.~.~.~ 8.C.S.i.@ O Y.Y.Y.0 ~ q C C ",
"-.-.,.-.C A X @ <.*.R.P.P.(.(.~.!.Q.2.C.V.B.* * (.~.8.f.~.~.E.2.! G.D.D.P P * ; f.P.f.f.f.f.~.8.2.V.V.V.S.G.O O Q.~ ^ 3.y C V C "
};
